<svg width="925" height="792" viewBox="0 0 925 792" fill="none" xmlns="http://www.w3.org/2000/svg">
<path d="M390.212 25.8968C428.198 40.239 463.957 58.8212 496.362 83.3523C526.755 106.283 551.351 134.578 571.729 166.723C597.039 206.548 603.572 251.198 604.826 297.145C604.956 302.531 605.043 307.896 605.173 313.261C606.081 313.629 606.99 314.04 607.898 314.386C615.534 301.298 624.88 289.725 635.393 279.298C642.38 272.332 649.908 265.886 657.761 259.872C704.205 224.482 755.842 211.459 813.405 225.542C836.898 231.339 858.768 240.576 878.238 254.897C884.511 259.504 890.568 264.48 896.214 269.888C928.684 300.736 923.99 341.794 899.892 370.089C883.754 389.017 862.684 401.196 840.727 412.012C814.098 425.035 785.738 432.823 756.447 436.717C725.448 440.827 694.319 443.963 663.082 444.915C663.082 444.915 663.046 444.908 662.974 444.894C643.873 445.478 624.642 445.175 605.454 443.834C563.357 440.87 522.234 433.472 483.383 417.658C472.848 413.419 462.507 408.508 452.34 402.862C447.473 400.158 442.93 397.302 438.625 393.798C408.578 369.526 379.872 343.827 351.166 318.02C309.891 280.899 267.513 244.967 225.633 208.495C194.093 181.109 163.678 152.338 135.253 121.685C114.421 99.2304 114.508 96.8292 133.35 73.4446C152.797 49.3246 177.112 32.473 206.186 21.0295C221.415 15.0373 236.558 10.9272 251.7 8.48272C298.296 0.673448 344.265 8.56925 390.212 25.8968Z" fill="black" stroke="#FF18B2" stroke-width="5" stroke-miterlimit="10" stroke-linejoin="round"/>
<path d="M552.801 479.68C567.187 485.282 581.55 490.777 595.806 496.661C595.806 496.661 595.828 496.661 595.871 496.661C624.382 508.407 652.31 521.495 678.334 538.714C714.373 562.596 748.617 588.663 780.33 618.127C795.191 631.885 808.712 646.898 819.16 664.355C829.5 681.747 835.19 700.394 832.962 720.88C828.549 761.722 796.187 782.1 767.891 785.366C742.235 788.33 717.661 783.311 693.563 775.026C633.36 754.324 590.441 714.153 559.421 660.699C557.733 657.887 556.089 655.01 554.532 652.111C543.11 631.128 531.385 610.361 518.838 590.026C515.593 584.726 512.889 578.972 508.044 574.602C504.063 577.782 504.518 581.763 503.631 585.094C497.033 610.512 488.618 635.324 478.17 659.315C460.734 699.356 430.362 724.774 387.898 735.439C346.818 745.757 305.176 746.731 263.533 740.609C210.188 732.735 158.508 718.241 108.516 697.842C98.9113 693.905 89.0902 690.379 79.3557 686.701C68.9289 682.721 58.6535 678.481 48.7027 673.332C40.1363 668.898 32.0674 663.619 24.4744 657.649C2.907 640.711 0.0298996 614.709 17.4439 593.379C25.0801 583.926 35.0094 577.306 45.6309 571.66C64.3428 561.709 83.7687 553.511 103.497 545.788C186.609 513.102 271.732 487.424 360.23 473.752C385.129 469.88 409.617 463.239 434.667 460.059C441.806 459.129 448.685 457.55 455.931 461.833C459.89 464.169 465.796 463.585 470.793 463.585C471.983 463.585 473.172 463.564 474.341 463.628C501.446 463.975 527.426 469.815 552.693 479.658L552.801 479.68Z" fill="black" stroke="#FF18B2" stroke-width="5" stroke-miterlimit="10" stroke-linejoin="round"/>
<path d="M470.879 463.628C472.069 463.628 473.259 463.606 474.427 463.671C452.881 480.349 428.501 492.031 405.268 505.703C298.21 568.804 188.491 627.168 79.3987 686.722C68.9719 682.742 58.6965 678.502 48.7456 673.353C40.1792 668.919 32.1104 663.64 24.5174 657.67C2.94997 640.732 0.0728694 614.73 17.4869 593.4C25.1231 583.947 35.0524 577.327 45.6738 571.681C64.3858 561.73 83.8117 553.532 103.54 545.809C186.652 513.122 271.775 487.445 360.273 473.773C385.172 469.901 409.66 463.26 434.71 460.08C441.849 459.15 448.728 457.571 455.974 461.854C459.933 464.19 465.839 463.606 470.836 463.606L470.879 463.628Z" fill="black" stroke="#FF18B2" stroke-width="5" stroke-miterlimit="10"/>
<path d="M251.7 8.4851C309.35 112.796 370.31 215.312 420.346 323.798C431.854 348.783 445.98 372.579 458.484 397.175C462.334 404.725 468.521 408.705 475.53 412.383C478.558 414.005 481.176 415.757 483.404 417.661C472.869 413.421 462.529 408.51 452.362 402.864C447.494 400.16 442.952 397.305 438.647 393.8C408.599 369.529 379.893 343.83 351.187 318.022C309.913 280.901 267.535 244.97 225.655 208.498C194.115 181.111 163.7 152.34 135.275 121.687C114.443 99.2328 114.529 96.8316 133.371 73.447C152.819 49.327 177.133 32.4754 206.207 21.0319C221.436 15.0397 236.579 10.9296 251.722 8.4851H251.7Z" fill="black" stroke="#FF18B2" stroke-width="5" stroke-miterlimit="10"/>
<path d="M606.213 506.57C602.34 503.714 598.62 500.664 595.872 496.662C624.384 508.409 652.311 521.496 678.335 538.715C714.374 562.598 748.618 588.665 780.331 618.128C795.193 631.886 808.713 646.899 819.161 664.356C829.502 681.748 835.191 700.396 832.963 720.881C828.55 761.723 796.188 782.101 767.893 785.367C742.237 788.331 717.662 783.312 693.564 775.027C633.361 754.325 590.443 714.154 559.422 660.7C568.313 662.561 575.343 669.743 578.48 681.316C580.816 689.644 584.991 696.329 590.832 702.364C604.417 716.447 620.165 727.285 638.099 735.072C646.579 738.771 655.448 740.697 664.728 741.519C708.598 745.477 727.267 715.019 726.856 681.9C726.488 656.093 717.23 632.513 705.397 609.929C689.173 578.887 665.334 554.118 638.964 531.642C628.537 522.729 617.202 514.768 606.169 506.527L606.213 506.57Z" fill="black" stroke="#FF18B2" stroke-width="5" stroke-miterlimit="10"/>
<path d="M813.429 225.565C836.921 231.363 858.792 240.6 878.261 254.921C884.534 259.528 890.591 264.504 896.237 269.912C928.707 300.759 924.013 341.818 899.915 370.113C883.777 389.041 862.707 401.22 840.75 412.036C814.121 425.059 785.761 432.847 756.471 436.74C725.471 440.85 694.342 443.987 663.105 444.939C664.079 444.658 665.074 444.441 666.047 444.16C686.057 439.012 706.11 434.058 726.034 428.52C744.789 423.35 762.182 415.238 777.216 402.496C784.311 396.526 790.304 389.712 795.366 381.946C804.083 368.62 806.506 354.819 802.547 338.681C798.61 322.673 794.392 307.033 781.131 296.671C752.382 274.281 720.647 260.091 682.921 266.948C670.698 269.198 658.887 273.005 647.206 277.18C642.749 278.738 638.877 279.516 635.416 279.322C642.403 272.356 649.931 265.91 657.784 259.896C704.228 224.505 755.865 211.483 813.429 225.565Z" fill="black" stroke="#FF18B2" stroke-width="5" stroke-miterlimit="10"/>
<path d="M396.356 168.909C369.511 161.684 355.168 136.807 360.879 112.016C366.417 88.0045 389.91 73.7055 414.744 79.2866C437.306 84.3486 454.612 102.195 458.03 123.936C461.535 146.26 448.187 165.275 425.971 169.104C415.068 170.986 404.057 170.662 396.378 168.931L396.356 168.909Z" fill="black" stroke="#FF18B2" stroke-width="5" stroke-miterlimit="10"/>
<path d="M298.708 621.846C312.92 625.913 324.148 633.939 330.421 647.935C339.701 668.615 331.546 689.144 310.692 697.819C285.231 708.44 266.346 705.109 250.554 687.262C232.794 667.166 236.904 641.056 259.986 627.6C272.035 620.57 284.906 618.709 298.708 621.824V621.846Z" fill="black" stroke="#FF18B2" stroke-width="5" stroke-miterlimit="10"/>
<path d="M715.325 304.825C733.324 309.238 744.745 322.456 743.188 338.723C741.09 360.615 730.338 374.049 712.189 376.991C700.334 378.916 689.302 376.364 679.524 369.701C667.691 361.632 661.547 350.232 663.256 335.673C664.965 321.115 673.575 311.661 687.009 306.405C696.246 302.792 705.742 302.662 715.325 304.847V304.825Z" fill="black" stroke="#FF18B2" stroke-width="5" stroke-miterlimit="10"/>
<path d="M654.56 615.552C674.548 620.787 688.242 643.523 682.877 662.538C678.096 679.454 660.855 688.345 642.273 683.5C619.667 677.594 606.731 659.25 611.75 640.192C616.704 621.35 635.459 610.555 654.56 615.552Z" fill="black" stroke="#FF18B2" stroke-width="5" stroke-miterlimit="10"/>
<path d="M422.878 545.506C426.361 532.31 439.514 524.609 452.558 528.113C465.797 531.682 474.06 545.917 470.599 559.134C467.181 572.222 453.921 579.901 440.811 576.397C427.356 572.806 419.331 558.939 422.878 545.506Z" fill="black" stroke="#FF18B2" stroke-width="5" stroke-miterlimit="10"/>
<path d="M356.51 603.005C359.754 589.917 372.864 581.762 385.865 584.726C398.996 587.711 407.129 600.972 403.884 614.081C400.705 626.995 387.292 635.324 374.4 632.403C361.334 629.44 353.243 616.158 356.488 603.027L356.51 603.005Z" fill="black" stroke="#FF18B2" stroke-width="5" stroke-miterlimit="10"/>
<path d="M501.166 266.191C514.123 269.458 522.214 282.827 519.12 295.849C516.005 309.002 502.766 316.984 489.592 313.653C476.461 310.321 468.501 297.191 471.702 284.081C474.926 270.842 488.035 262.882 501.187 266.191L501.166 266.191Z" fill="black" stroke="#FF18B2" stroke-width="5" stroke-miterlimit="10" stroke-linejoin="round"/>
<path d="M480.873 185.739C493.939 189.201 501.748 202.742 498.157 215.765C494.545 228.831 480.938 236.467 467.98 232.682C455.563 229.047 448.057 216.068 451.107 203.521C454.287 190.477 467.915 182.321 480.873 185.739Z" fill="black" stroke="#FF18B2" stroke-width="5" stroke-miterlimit="10"/>
<path d="M273.542 301.615C273.249 301.499 272.946 301.441 272.646 301.438C270.269 301.119 267.898 300.787 265.533 300.455C259.71 299.637 253.917 298.824 248.128 298.228L248.124 298.228C242.118 297.62 236.125 298.623 230.679 301.488L230.675 301.49C228.781 302.49 227.19 303.926 226.224 305.825C225.247 307.744 225.009 309.94 225.504 312.25L225.506 312.258C226.063 314.813 227.398 316.662 229.337 317.786C231.161 318.843 233.274 319.115 235.196 319.115C236.455 319.115 237.837 318.828 238.86 318.616C239.177 318.55 239.459 318.491 239.693 318.45L239.693 318.45C251.279 316.426 262.701 318.292 273.416 322.611L273.416 322.612C301.861 334.066 327.877 349.586 351.055 369.894L351.056 369.895C356.968 375.067 361.824 380.111 364.804 385.859C367.735 391.514 368.917 397.984 367.215 406.184L367.214 406.188C366.688 408.741 366.26 410.489 365.539 411.896C364.877 413.188 363.92 414.274 362.131 415.292L362.127 415.294C349.847 422.311 337.066 428.081 323.674 432.46C303.901 438.922 285.112 441.094 267.484 437.979C249.884 434.869 233.278 426.461 217.88 411.497L217.879 411.496C216.319 409.982 214.422 408.502 212.199 407.885C209.801 407.219 207.318 407.636 204.936 409.362C202.252 411.303 200.96 413.805 200.897 416.554C200.838 419.127 201.866 421.603 203.104 423.69C206.749 429.889 212.394 434.047 217.793 437.596C248.787 458.029 282.398 463.895 318.427 454.364C336.507 449.587 353.571 442.297 369.834 433.303L369.834 433.303C372.471 431.844 373.972 431.245 375.126 431.3C375.954 431.34 377.172 431.774 378.963 434.452L378.965 434.454C393.517 456.16 414.194 470.444 436.962 481.621C482.334 503.894 529.903 519.692 579.576 529.014L579.579 529.015C594.986 531.887 610.702 533.842 626.62 533.491C644.738 533.116 662.037 528.962 677.835 519.808C688.398 513.688 695.365 505.057 698.225 495.078C701.083 485.106 699.765 474.044 694.234 463.186C689.812 454.501 683.556 447.228 675.68 441.586C669.286 437.003 662.64 432.658 655.685 428.895C594.233 395.54 528.699 374.639 459.47 365.255C436.439 362.126 412.776 361.012 390.236 369.548C385.915 371.182 383.144 371.352 380.893 370.686C378.572 369.999 376.352 368.299 373.386 365.153C345.414 335.451 310.691 316.353 273.542 301.615Z" fill="black" stroke="#FF18B2" stroke-width="5" stroke-miterlimit="10" stroke-linejoin="round"/>
</svg>
