<svg width="912" height="913" viewBox="0 0 912 913" fill="none" xmlns="http://www.w3.org/2000/svg">
<path d="M746.172 379.544L887.057 435.725C921.203 449.342 919.377 498.354 884.313 509.386L739.64 554.9C717.559 561.848 706.319 586.392 715.47 607.683L775.422 747.177C789.952 780.987 754.055 814.35 721.472 797.32L587.036 727.054C566.517 716.329 541.239 725.726 532.676 747.262L476.577 888.353C462.98 922.55 414.04 920.721 403.024 885.606L357.575 740.723C350.638 718.609 326.129 707.353 304.869 716.517L165.58 776.557C131.82 791.109 98.5055 755.159 115.511 722.528L185.673 587.895C196.383 567.346 186.999 542.031 165.495 533.455L24.6105 477.274C-9.53589 463.657 -7.71015 414.645 27.3537 403.613L172.027 358.099C194.108 351.151 205.348 326.607 196.198 305.316L136.246 165.822C121.715 132.013 157.612 98.6492 190.195 115.68L324.631 185.945C345.15 196.67 370.428 187.273 378.991 165.739L435.09 24.647C448.687 -9.54946 497.627 -7.7222 508.643 27.3943L554.091 172.279C561.028 194.394 585.537 205.65 606.797 196.486L746.086 136.446C779.846 121.894 813.16 157.843 796.155 190.474L725.993 325.107C715.286 345.653 724.669 370.968 746.172 379.544Z" fill="white"/>
<path d="M746.172 379.544L887.057 435.725C921.203 449.342 919.377 498.354 884.313 509.386L739.64 554.9C717.559 561.848 706.319 586.392 715.47 607.683L775.422 747.177C789.952 780.987 754.055 814.35 721.472 797.32L587.036 727.054C566.517 716.329 541.239 725.726 532.676 747.262L476.577 888.353C462.98 922.55 414.04 920.721 403.024 885.606L357.575 740.723C350.638 718.609 326.129 707.353 304.869 716.517L165.58 776.557C131.82 791.109 98.5055 755.159 115.511 722.528L185.673 587.895C196.383 567.346 186.999 542.031 165.495 533.455L24.6105 477.274C-9.53589 463.657 -7.71015 414.645 27.3537 403.613L172.027 358.099C194.108 351.151 205.348 326.607 196.198 305.316L136.246 165.822C121.715 132.013 157.612 98.6492 190.195 115.68L324.631 185.945C345.15 196.67 370.428 187.273 378.991 165.739L435.09 24.647C448.687 -9.54946 497.627 -7.7222 508.643 27.3943L554.091 172.279C561.028 194.394 585.537 205.65 606.797 196.486L746.086 136.446C779.846 121.894 813.16 157.843 796.155 190.474L725.993 325.107C715.286 345.653 724.669 370.968 746.172 379.544Z" fill="white"/>
<path d="M596.426 597.312C674.079 519.545 674.079 393.459 596.426 315.692C518.773 237.925 392.872 237.925 315.218 315.692C237.565 393.459 237.565 519.545 315.218 597.312C392.872 675.079 518.772 675.079 596.426 597.312Z" fill="#FF18B2"/>
<path d="M509.39 474.453C519.506 474.262 527.311 453.035 526.823 427.041C526.335 401.046 517.738 380.128 507.622 380.319C497.506 380.509 489.7 401.736 490.188 427.731C490.677 453.725 499.273 474.643 509.39 474.453Z" fill="white"/>
<path d="M394.553 476.615C404.67 476.424 412.475 455.197 411.987 429.203C411.499 403.208 402.902 382.29 392.786 382.481C382.669 382.671 374.864 403.898 375.352 429.893C375.84 455.887 384.437 476.805 394.553 476.615Z" fill="white"/>
<path d="M455.13 587.625L453.603 587.619C355.29 586.379 325.271 467.385 324.98 466.183C324.34 463.546 325.955 460.888 328.588 460.246C331.219 459.606 333.878 461.22 334.521 463.858C334.796 464.987 363.068 576.641 453.724 577.785L455.129 577.79C544.643 577.79 560.637 465.683 560.787 464.551C561.147 461.864 563.596 459.98 566.298 460.322C568.983 460.677 570.875 463.14 570.523 465.83C570.367 467.047 553.502 587.625 455.13 587.625Z" fill="white"/>
</svg>
