<svg width="112" height="112" viewBox="0 0 112 112" fill="none" xmlns="http://www.w3.org/2000/svg">
<g opacity="0.2">
<path d="M55.9015 111.841C86.7418 111.841 111.761 86.8402 111.783 56C111.806 25.1598 86.823 0.158813 55.9827 0.158813C25.1425 0.158813 0.123425 25.1598 0.101003 56C0.0785807 86.8402 25.0613 111.841 55.9015 111.841Z" fill="white"/>
<path d="M76.4379 85.9835H34.1075C28.27 85.9835 24.7805 79.6572 27.7114 74.6052C31.7983 67.5608 39.9247 59.8511 55.919 59.8511C72.6608 59.8511 80.0638 68.2983 83.3353 75.5872C85.5297 80.4758 81.793 85.9835 76.4379 85.9835Z" fill="#FF18B2"/>
<path d="M38.8147 54.4441C36.3575 54.4441 33.7821 53.485 31.3663 51.6384C27.6064 48.7647 25.0501 44.2822 25.0039 40.485C25.1713 32.7948 30.8174 28.1816 36.3076 27.573C40.7943 27.0729 46.7201 29.3102 48.6824 37.2427C49.5395 40.5812 48.34 44.6042 45.6936 47.2416C43.5571 49.3703 40.8108 50.2119 38.1427 49.5563C35.7249 49.2678 33.6853 47.4501 32.5338 44.5497C31.2604 41.3409 31.1053 36.5556 33.3279 34.0072C34.5303 32.6288 36.2408 32.1276 38.1408 32.5995C38.2696 32.6314 38.3939 32.6799 38.5099 32.7434C40.5428 33.8585 42.0975 37.1432 41.772 39.6356C41.5339 41.4555 40.3716 42.752 38.5831 43.1927C37.7613 43.3963 36.9289 42.8921 36.7266 42.069C36.5239 41.2454 37.027 40.4136 37.8495 40.2111C38.4093 40.0733 38.6559 39.8005 38.7291 39.2377C38.9037 37.9002 37.94 36.1029 37.1842 35.5344C36.3361 35.3872 35.9123 35.7144 35.6393 36.027C34.4519 37.3882 34.3362 40.7724 35.3856 43.4162C35.8154 44.4994 36.8002 46.3422 38.5632 46.5135C38.6443 46.521 38.7242 46.5353 38.8031 46.5563C41.0297 47.1402 42.7192 45.8726 43.5286 45.0659C45.4012 43.1995 46.297 40.2919 45.7072 37.9941C44.2201 31.9818 40.054 30.2484 36.6459 30.6252C32.4824 31.0869 28.2007 34.6271 28.0719 40.5004C28.1068 43.3058 30.2272 46.9042 33.2287 49.1986C34.6249 50.2656 37.4046 51.9439 40.3224 51.1842C41.1438 50.9734 41.9803 51.4633 42.1935 52.2839C42.4064 53.1048 41.9142 53.9429 41.0943 54.1563C40.3521 54.3487 39.5892 54.4441 38.8147 54.4441Z" fill="#FF18B2"/>
<path d="M74.3915 54.4376C70.1068 54.4376 65.007 51.9456 63.2151 44.7025C62.358 41.364 63.5575 37.3403 66.2039 34.7036C68.3404 32.5742 71.0852 31.7363 73.7544 32.3882C76.1722 32.6771 78.2119 34.4947 79.3633 37.3955C80.6375 40.6043 80.7922 45.3896 78.5693 47.9376C77.3668 49.3161 75.656 49.8169 73.7563 49.3454C73.6272 49.3134 73.5033 49.265 73.3873 49.2011C71.3539 48.0857 69.7997 44.8005 70.1256 42.3085C70.3632 40.489 71.5255 39.1928 73.3141 38.7522C74.1366 38.5485 74.9682 39.0527 75.1705 39.8759C75.3733 40.6994 74.8702 41.5312 74.0476 41.7337C73.4883 41.8716 73.2416 42.1443 73.168 42.7068C72.9934 44.0443 73.9572 45.8416 74.7129 46.4108C75.5674 46.5581 75.9852 46.2304 76.2578 45.9182C77.4452 44.5574 77.5612 41.1732 76.5119 38.529C76.0817 37.4458 75.097 35.6027 73.3332 35.4313C73.2525 35.4235 73.1725 35.4096 73.094 35.3885C70.8685 34.8081 69.178 36.073 68.369 36.8793C66.4963 38.7458 65.6006 41.6533 66.1904 43.9511C67.6778 49.9638 71.8435 51.6976 75.2513 51.3201C79.4148 50.8583 83.6965 47.3177 83.8253 41.4444C83.7904 38.6391 81.6699 35.0406 78.668 32.7462C77.2718 31.6792 74.4956 30.0025 71.5751 30.761C70.7552 30.9737 69.9176 30.4819 69.704 29.6613C69.4911 28.8404 69.9829 28.0026 70.8032 27.7889C73.8975 26.9845 77.3536 27.8772 80.5301 30.3057C84.2904 33.1794 86.8475 37.6622 86.8933 41.4594C86.7258 49.1496 81.0798 53.7628 75.5895 54.3715C75.1998 54.4147 74.7993 54.4376 74.3915 54.4376Z" fill="#FF18B2"/>
</g>
</svg>
