<svg width="75" height="75" viewBox="0 0 75 75" fill="none" xmlns="http://www.w3.org/2000/svg">
<g opacity="0.2">
<path d="M37.4346 74.6096C57.9297 74.6096 74.5563 57.9951 74.5712 37.5C74.5861 17.0049 57.9836 0.390381 37.4886 0.390381C16.9935 0.390381 0.366827 17.0049 0.351926 37.5C0.337025 57.9951 16.9395 74.6096 37.4346 74.6096Z" fill="white"/>
<path d="M47.873 44.832H27.6599C24.2511 44.832 21.4619 47.6232 21.4619 51.0346V52.1015C21.4619 55.5129 24.2511 58.3041 27.6599 58.3041H47.873C51.2819 58.3041 54.071 55.5129 54.071 52.1015V51.0346C54.071 47.6232 51.2819 44.832 47.873 44.832Z" fill="#FF18B2"/>
<path d="M53.0671 31.2839C52.9664 25.9337 51.1955 21.6281 49.1118 21.6674C47.0281 21.7067 45.4204 26.0757 45.5211 31.4262C45.6218 36.7764 47.3926 41.082 49.4763 41.0427C51.5601 41.0034 53.1677 36.6344 53.0671 31.2839Z" fill="#FF18B2"/>
<path d="M29.4138 31.7294C29.3131 26.3793 27.5423 22.0736 25.4586 22.1129C23.3748 22.1523 21.7671 26.5212 21.8678 31.8718C21.9684 37.2219 23.7393 41.5276 25.8231 41.4883C27.9068 41.449 29.5141 37.08 29.4138 31.7294Z" fill="#FF18B2"/>
</g>
</svg>
