<svg width="83" height="83" viewBox="0 0 83 83" fill="none" xmlns="http://www.w3.org/2000/svg">
<g opacity="0.2">
<path d="M41.861 82.8829C64.4771 82.8829 82.8243 64.549 82.8407 41.933C82.8571 19.317 64.5366 0.983154 41.9206 0.983154C19.3046 0.983154 0.957374 19.317 0.940931 41.933C0.924488 64.549 19.245 82.8829 41.861 82.8829Z" fill="#FF18B2"/>
<path d="M56.519 25.7394C56.4185 20.3917 54.6487 16.0886 52.566 16.128C50.4832 16.1673 48.8766 20.5341 48.9771 25.8818C49.0777 31.2295 50.8475 35.5326 52.9302 35.4933C55.0129 35.454 56.6196 31.0871 56.519 25.7394Z" fill="white"/>
<path d="M32.8775 26.1851C32.7769 20.8374 31.0071 16.5343 28.9244 16.5736C26.8417 16.613 25.235 20.9798 25.3355 26.3275C25.4361 31.6752 27.2059 35.9783 29.2886 35.939C31.3717 35.8997 32.9784 31.5325 32.8775 26.1851Z" fill="white"/>
<path d="M23.3392 43.3492C23.2864 43.3492 23.233 43.3521 23.1795 43.3581C22.3859 43.4456 21.8129 44.159 21.8992 44.9532C21.923 45.1682 24.4283 66.4481 40.6796 66.4481C56.7822 66.4481 61.6878 46.3711 61.8885 45.5164C62.0715 44.7388 61.5897 43.9603 60.8128 43.7768C60.0376 43.5933 59.2568 44.075 59.0731 44.8526C59.0285 45.0396 54.4857 63.553 40.6799 63.553C27.0239 63.553 24.8609 45.4108 24.7756 44.6382C24.6934 43.8976 24.0666 43.3492 23.3392 43.3492Z" fill="white"/>
</g>
</svg>
