<svg width="188" height="170" viewBox="0 0 188 170" fill="none" xmlns="http://www.w3.org/2000/svg">
<g opacity="0.2">
<path d="M92.926 169.242C139.41 169.242 177.121 131.559 177.155 85.0741C177.188 38.5898 139.533 0.906738 93.0484 0.906738C46.564 0.906738 8.85346 38.5898 8.81967 85.0741C8.78587 131.559 46.4416 169.242 92.926 169.242Z" fill="#FF18B2"/>
<path d="M132.319 83.2589C132.006 83.2589 131.688 83.1881 131.39 83.0387L110.732 72.7021C110.023 72.3474 109.577 71.6216 109.581 70.8286C109.585 70.0361 110.038 69.3145 110.749 68.9674L132.016 58.5859C133.049 58.0808 134.296 58.5104 134.799 59.544C135.303 60.5781 134.874 61.8252 133.841 62.3287L116.362 70.8622L133.251 79.3127C134.279 79.8274 134.696 81.0781 134.182 82.1071C133.817 82.8369 133.082 83.2589 132.319 83.2589Z" fill="white"/>
<path d="M54.3874 83.2588C53.624 83.2588 52.8891 82.8368 52.5239 82.107C52.0101 81.078 52.4272 79.8274 53.4549 79.3126L70.344 70.8621L52.8641 62.3286C51.8313 61.8246 51.4025 60.578 51.9067 59.5439C52.4103 58.5104 53.6571 58.0817 54.6894 58.5858L75.9563 68.9673C76.6677 69.3144 77.121 70.0365 77.1246 70.8285C77.1281 71.6215 76.6825 72.3473 75.9741 72.702L55.3158 83.0387C55.0174 83.188 54.7001 83.2588 54.3874 83.2588Z" fill="white"/>
<path d="M28.8469 133.201C35.3957 126.672 46.4516 94.6295 45.5782 92.8733C45.5782 92.8733 11.7673 102.94 5.21901 109.469C-1.32978 115.999 -1.3486 126.605 5.17574 133.158C11.7001 139.711 22.2981 139.731 28.8469 133.201Z" fill="white"/>
<path d="M158.728 133.201C152.18 126.672 141.124 94.6295 141.997 92.8733C141.997 92.8733 175.808 102.94 182.356 109.469C188.905 115.999 188.924 126.605 182.4 133.158C175.875 139.711 165.277 139.731 158.728 133.201Z" fill="white"/>
<path d="M64.0421 95.3887H121.465C129.383 95.3887 134.117 103.971 130.141 110.824C124.597 120.38 113.573 130.838 91.8767 130.838C69.166 130.838 59.1235 119.379 54.6857 109.492C51.709 102.86 56.7783 95.3887 64.0421 95.3887Z" fill="white"/>
</g>
</svg>
