<svg width="281" height="241" viewBox="0 0 281 241" fill="none" xmlns="http://www.w3.org/2000/svg">
<g clip-path="url(#clip0_2014_4659)">
<path d="M118.108 8.81706C129.626 13.1657 140.468 18.8 150.293 26.2379C159.509 33.1905 166.967 41.7698 173.145 51.5166C180.819 63.5918 182.8 77.1297 183.181 91.0612C183.22 92.6944 183.246 94.321 183.285 95.9477C183.561 96.0592 183.836 96.1838 184.112 96.2887C186.427 92.3205 189.261 88.8114 192.449 85.6499C194.567 83.5379 196.85 81.5833 199.231 79.7599C213.313 69.0293 228.969 65.0807 246.423 69.3507C253.546 71.1085 260.177 73.9092 266.081 78.2513C267.983 79.6484 269.819 81.157 271.531 82.7968C281.376 92.15 279.953 104.599 272.646 113.178C267.753 118.918 261.365 122.61 254.707 125.89C246.633 129.838 238.034 132.2 229.153 133.38C219.754 134.626 210.315 135.578 200.844 135.866C200.844 135.866 200.833 135.864 200.811 135.86C195.02 136.037 189.189 135.945 183.371 135.538C170.607 134.64 158.138 132.396 146.358 127.602C143.164 126.316 140.028 124.827 136.946 123.115C135.47 122.295 134.093 121.43 132.787 120.367C123.677 113.008 114.973 105.216 106.269 97.3907C93.7543 86.1353 80.9051 75.2407 68.2067 64.1821C58.6436 55.8783 49.4215 47.1548 40.8029 37.8606C34.4866 31.0523 34.5128 30.3242 40.2257 23.2339C46.1223 15.9205 53.4947 10.811 62.3101 7.34127C66.9277 5.52441 71.519 4.27818 76.1104 3.53701C90.2386 1.16919 104.177 3.56325 118.108 8.81706Z" fill="black" stroke="#4890B8" stroke-width="5" stroke-miterlimit="10"/>
<path d="M167.406 146.407C171.768 148.106 176.123 149.772 180.446 151.556C180.446 151.556 180.452 151.556 180.465 151.556C189.11 155.117 197.578 159.086 205.468 164.307C216.396 171.548 226.779 179.451 236.394 188.385C240.9 192.556 245 197.108 248.168 202.402C251.303 207.675 253.028 213.329 252.353 219.54C251.015 231.924 241.202 238.103 232.623 239.093C224.844 239.992 217.393 238.47 210.086 235.958C191.832 229.681 178.819 217.501 169.413 201.293C168.902 200.441 168.403 199.568 167.931 198.689C164.468 192.327 160.913 186.03 157.108 179.865C156.125 178.258 155.305 176.513 153.835 175.188C152.629 176.152 152.766 177.359 152.497 178.369C150.497 186.076 147.945 193.599 144.777 200.873C139.491 213.014 130.282 220.721 117.406 223.955C104.951 227.083 92.3245 227.379 79.6983 225.522C63.5237 223.135 47.8541 218.74 32.6961 212.555C29.7839 211.361 26.8061 210.292 23.8545 209.177C20.693 207.97 17.5774 206.685 14.5603 205.124C11.9629 203.779 9.51636 202.179 7.21412 200.368C0.674735 195.233 -0.197621 187.349 5.08243 180.881C7.39778 178.015 10.4084 176.008 13.6289 174.296C19.3025 171.279 25.1925 168.793 31.1744 166.451C56.3743 156.541 82.1842 148.755 109.017 144.61C116.567 143.436 123.992 141.422 131.587 140.458C133.752 140.176 135.837 139.697 138.035 140.996C139.235 141.704 141.026 141.527 142.541 141.527C142.902 141.527 143.262 141.52 143.616 141.54C151.835 141.645 159.712 143.416 167.373 146.4L167.406 146.407Z" fill="black" stroke="#4890B8" stroke-width="5" stroke-miterlimit="10"/>
<path d="M142.567 141.54C142.927 141.54 143.288 141.533 143.642 141.553C137.109 146.61 129.717 150.152 122.673 154.297C90.2121 173.43 56.9445 191.126 23.8672 209.184C20.7057 207.977 17.5901 206.691 14.573 205.13C11.9756 203.785 9.52905 202.185 7.22682 200.375C0.68743 195.239 -0.184925 187.355 5.09512 180.888C7.41047 178.021 10.4211 176.014 13.6416 174.302C19.3152 171.285 25.2052 168.799 31.1871 166.458C56.387 156.547 82.1969 148.761 109.03 144.616C116.58 143.442 124.004 141.428 131.6 140.464C133.764 140.182 135.85 139.703 138.047 141.002C139.248 141.71 141.038 141.533 142.553 141.533L142.567 141.54Z" fill="black" stroke="#4890B8" stroke-width="5" stroke-miterlimit="10"/>
<path d="M76.1107 3.5376C93.5906 35.1654 112.074 66.2488 127.245 99.1425C130.735 106.718 135.018 113.933 138.809 121.391C139.976 123.68 141.852 124.887 143.977 126.002C144.896 126.494 145.689 127.025 146.365 127.602C143.171 126.317 140.035 124.828 136.953 123.116C135.477 122.296 134.099 121.43 132.794 120.368C123.684 113.008 114.98 105.216 106.276 97.3913C93.7611 86.1359 80.9119 75.2413 68.2135 64.1827C58.6504 55.8789 49.4284 47.1554 40.8098 37.8612C34.4934 31.0529 34.5196 30.3248 40.2326 23.2345C46.1292 15.9211 53.5016 10.8116 62.3169 7.34185C66.9345 5.52499 71.5259 4.27877 76.1172 3.5376H76.1107Z" fill="black" stroke="#4890B8" stroke-width="5" stroke-miterlimit="10"/>
<path d="M183.6 154.56C182.426 153.694 181.298 152.77 180.465 151.556C189.11 155.118 197.578 159.086 205.468 164.307C216.396 171.548 226.779 179.452 236.394 188.385C240.9 192.557 245 197.109 248.168 202.402C251.303 207.676 253.028 213.329 252.352 219.541C251.014 231.924 241.202 238.103 232.623 239.093C224.844 239.992 217.393 238.47 210.086 235.958C191.832 229.681 178.819 217.501 169.413 201.294C172.109 201.858 174.241 204.035 175.192 207.544C175.9 210.07 177.166 212.096 178.937 213.926C183.056 218.196 187.831 221.482 193.268 223.844C195.84 224.965 198.529 225.549 201.343 225.798C214.644 226.999 220.305 217.763 220.18 207.721C220.069 199.896 217.261 192.747 213.674 185.899C208.754 176.487 201.526 168.977 193.531 162.162C190.369 159.46 186.932 157.046 183.587 154.547L183.6 154.56Z" fill="black" stroke="#4890B8" stroke-width="5" stroke-miterlimit="10"/>
<path d="M246.43 69.3579C253.553 71.1157 260.184 73.9164 266.087 78.2586C267.989 79.6556 269.826 81.1642 271.538 82.804C281.383 92.1572 279.96 104.606 272.653 113.186C267.76 118.925 261.371 122.618 254.714 125.897C246.64 129.846 238.041 132.207 229.16 133.387C219.76 134.634 210.322 135.585 200.851 135.873C201.146 135.788 201.448 135.723 201.743 135.637C207.81 134.076 213.89 132.574 219.931 130.895C225.618 129.327 230.891 126.868 235.45 123.004C237.601 121.194 239.418 119.128 240.953 116.773C243.596 112.733 244.331 108.548 243.13 103.655C241.937 98.8015 240.658 94.0593 236.637 90.9175C227.92 84.1289 218.298 79.8262 206.859 81.9054C203.153 82.5875 199.572 83.7419 196.03 85.0078C194.679 85.4801 193.505 85.7162 192.455 85.6572C194.574 83.5452 196.856 81.5906 199.237 79.7671C213.319 69.0365 228.976 65.0879 246.43 69.3579Z" fill="black" stroke="#4890B8" stroke-width="5" stroke-miterlimit="10"/>
<path d="M119.971 52.1794C111.831 49.9887 107.482 42.4458 109.214 34.9291C110.893 27.6485 118.016 23.313 125.546 25.0052C132.387 26.54 137.634 31.9513 138.67 38.5431C139.733 45.3121 135.686 51.0775 128.95 52.2385C125.644 52.8091 122.306 52.7107 119.977 52.186L119.971 52.1794Z" fill="black" stroke="#4890B8" stroke-width="5" stroke-miterlimit="10"/>
<path d="M90.3634 189.513C94.6727 190.746 98.0769 193.179 99.979 197.423C102.793 203.693 100.32 209.918 93.9972 212.548C86.2771 215.769 80.5511 214.759 75.763 209.347C70.378 203.254 71.6242 195.337 78.6227 191.257C82.2761 189.126 86.1787 188.562 90.3634 189.506V189.513Z" fill="black" stroke="#4890B8" stroke-width="5" stroke-miterlimit="10"/>
<path d="M216.685 93.3898C222.142 94.7279 225.605 98.7355 225.133 103.668C224.496 110.306 221.237 114.379 215.734 115.271C212.139 115.855 208.794 115.081 205.829 113.06C202.242 110.614 200.379 107.157 200.897 102.743C201.415 98.3288 204.026 95.4625 208.099 93.8686C210.9 92.7733 213.779 92.7339 216.685 93.3964V93.3898Z" fill="black" stroke="#4890B8" stroke-width="5" stroke-miterlimit="10"/>
<path d="M198.26 187.604C204.32 189.192 208.472 196.085 206.846 201.851C205.396 206.98 200.168 209.676 194.534 208.206C187.68 206.416 183.758 200.854 185.279 195.075C186.781 189.362 192.468 186.089 198.26 187.604Z" fill="black" stroke="#4890B8" stroke-width="5" stroke-miterlimit="10"/>
<path d="M128.012 166.366C129.068 162.365 133.056 160.03 137.011 161.092C141.025 162.174 143.531 166.49 142.482 170.498C141.445 174.466 137.425 176.795 133.45 175.732C129.37 174.643 126.937 170.439 128.012 166.366Z" fill="black" stroke="#4890B8" stroke-width="5" stroke-miterlimit="10"/>
<path d="M107.889 183.8C108.873 179.832 112.848 177.359 116.79 178.258C120.771 179.163 123.237 183.183 122.253 187.158C121.289 191.074 117.222 193.599 113.313 192.714C109.352 191.815 106.898 187.788 107.882 183.807L107.889 183.8Z" fill="black" stroke="#4890B8" stroke-width="5" stroke-miterlimit="10"/>
<path d="M151.75 81.6756C155.678 82.6661 158.131 86.7196 157.194 90.6681C156.249 94.656 152.235 97.0763 148.24 96.0662C144.259 95.0561 141.845 91.0748 142.816 87.1C143.793 83.0858 147.768 80.6721 151.756 81.6756H151.75Z" fill="black" stroke="#4890B8" stroke-width="5" stroke-miterlimit="10"/>
<path d="M145.597 57.2822C149.559 58.3316 151.927 62.4376 150.838 66.3862C149.743 70.3478 145.617 72.6632 141.688 71.5153C137.923 70.4134 135.647 66.478 136.572 62.6737C137.536 58.7186 141.669 56.2458 145.597 57.2822Z" fill="black" stroke="#4890B8" stroke-width="5" stroke-miterlimit="10"/>
<path d="M72.1261 86.3344L83.3753 90.7973C94.7644 95.3156 105.551 101.224 114.274 110.486C115.13 111.395 115.538 111.618 115.777 111.689C115.946 111.739 116.365 111.814 117.499 111.385L72.1261 86.3344ZM72.1261 86.3344L75.4792 89.6855M72.1261 86.3344L75.4792 89.6855M75.4792 89.6855C75.388 89.6758 75.2969 89.6663 75.2057 89.6569L75.2015 89.6565C73.0688 89.4407 70.9044 89.7954 68.9256 90.8364L68.922 90.8383C68.0984 91.2733 67.3214 91.9442 66.8335 92.9028C66.3351 93.8818 66.2406 94.9618 66.4644 96.0061L66.4644 96.0062L66.4662 96.0145C66.729 97.2204 67.4048 98.2173 68.4563 98.8267C69.3926 99.3694 70.39 99.4647 71.1062 99.4647C71.7361 99.4647 72.5489 99.2856 72.7327 99.2451C72.7528 99.2407 72.7654 99.2379 72.7693 99.2372L72.7695 99.2372C75.9 98.6903 79.0313 99.1841 82.0434 100.398L82.0442 100.399C90.5013 103.805 98.2182 108.411 105.088 114.429L105.089 114.43C106.84 115.963 108.109 117.317 108.858 118.762C109.558 120.113 109.866 121.666 109.43 123.768L109.429 123.772C109.265 124.57 109.172 124.874 109.077 125.06C109.044 125.123 109.018 125.157 108.991 125.185C108.96 125.216 108.889 125.281 108.732 125.37L108.728 125.372C105.101 127.445 101.333 129.145 97.3922 130.434L75.4792 89.6855ZM175.206 163.078L175.203 163.077C159.987 160.222 145.414 155.382 131.515 148.559C124.469 145.1 117.9 140.599 113.251 133.664L113.25 133.662C113.242 133.651 113.234 133.64 113.227 133.629C113.227 133.629 113.227 133.629 113.226 133.629C113.097 133.693 112.95 133.771 112.773 133.869L112.772 133.87C107.739 136.653 102.431 138.924 96.7874 140.415C85.372 143.435 74.6721 141.563 64.8715 135.102C63.2102 134.01 61.1994 132.566 59.8758 130.316C59.4289 129.562 58.9365 128.477 58.965 127.227C58.9975 125.801 59.6953 124.554 60.9103 123.675L175.206 163.078ZM175.206 163.078C179.942 163.961 184.835 164.574 189.825 164.464C195.567 164.346 201.109 163.026 206.191 160.081C209.729 158.031 212.167 155.071 213.174 151.556C214.18 148.046 213.687 144.239 211.842 140.616C210.375 137.734 208.294 135.314 205.678 133.441C203.702 132.024 201.624 130.664 199.433 129.478C180.607 119.26 160.533 112.859 139.341 109.986M175.206 163.078L139.341 109.986M67.0687 124.483L67.07 124.484C71.51 128.799 76.2346 131.17 81.1995 132.048C86.1922 132.93 91.5924 132.329 97.392 130.434L67.0687 124.483ZM67.0687 124.483C66.526 123.956 65.6959 123.264 64.5993 122.96M67.0687 124.483L64.5993 122.96M139.341 109.986C132.289 109.028 124.754 108.638 117.499 111.385L139.341 109.986ZM64.5993 122.96C63.3291 122.607 62.0337 122.862 60.9112 123.674L64.5993 122.96Z" fill="black" stroke="#4890B8" stroke-width="5" stroke-miterlimit="10"/>
</g>
<defs>
<clipPath id="clip0_2014_4659">
<rect width="280.144" height="240.009" fill="white" transform="translate(0.0253906 0.98584)"/>
</clipPath>
</defs>
</svg>
