<svg width="52" height="52" viewBox="0 0 52 52" fill="none" xmlns="http://www.w3.org/2000/svg">
<g clip-path="url(#clip0_2004_2586)">
<path d="M52 26C52 40.3594 40.3596 52 26.0004 52C11.6411 52 0 40.3594 0 26C0 11.6406 11.6404 0 26.0004 0C40.3603 0 52 11.6406 52 26Z" fill="#FF69D8"/>
<path d="M51.3351 25.9996C51.3351 39.9923 39.9925 51.3351 25.9999 51.3351C12.0074 51.3351 0.664062 39.9923 0.664062 25.9996C0.664062 12.0068 12.0074 0.664062 25.9999 0.664062C39.9925 0.664062 51.3351 12.0075 51.3351 25.9996Z" fill="#FF18B2"/>
<path d="M16.6144 49.532C13.4173 48.2559 10.5384 46.3516 8.1377 43.9646L13.092 39.0103C15.4361 41.5154 18.4745 43.3632 21.8998 44.2472L16.6144 49.532ZM44.2756 21.8704C43.3923 18.4458 41.5438 15.4067 39.0387 13.0625L43.9292 8.17188C44.3582 8.5813 44.7734 9.00448 45.1741 9.44217C46.9995 11.5567 48.4784 13.9762 49.5313 16.6139L44.2749 21.8704H44.2756Z" fill="#FF50D2"/>
<path d="M6.62222 42.3147C6.16425 41.7712 5.73092 41.2075 5.31934 40.627L10.4874 35.4589C10.8424 36.0893 11.233 36.6973 11.6577 37.2792L6.62149 42.3154L6.62222 42.3147ZM37.3066 11.6299C36.7247 11.2053 36.1175 10.8147 35.4863 10.4596L40.5181 5.42773C41.1094 5.82701 41.6848 6.25092 42.2406 6.69585L37.3066 11.6299Z" fill="#FF50D2"/>
<path d="M26.4979 44.8282C24.9095 44.8282 23.3689 44.6267 21.8986 44.2477L44.2751 21.8709C44.6541 23.3412 44.8556 24.8818 44.8556 26.4702C44.8556 36.6093 36.6368 44.8282 26.4979 44.8282ZM13.0908 39.0101C12.5792 38.4637 12.1002 37.8847 11.6582 37.2782L37.3064 11.6289C37.9129 12.0717 38.4912 12.5506 39.0383 13.0622L13.0908 39.0101Z" fill="#FEE960"/>
<path d="M10.4877 35.4592C8.99279 32.8019 8.14062 29.736 8.14062 26.4708C8.14062 16.3316 16.3594 8.11279 26.4983 8.11279C29.7635 8.11279 32.8301 8.96497 35.4866 10.4599L10.4877 35.4592Z" fill="#FEE960"/>
<path d="M47.0651 25.9998C47.0651 37.6338 37.6334 47.065 26.0002 47.065C14.367 47.065 4.93457 37.6338 4.93457 25.9998C4.93457 14.3657 14.3656 4.93457 25.9995 4.93457C37.6334 4.93457 47.0644 14.3657 47.0644 25.9998H47.0651Z" fill="#E10094"/>
<path d="M6.07803 27.144C6.07803 15.5099 15.5098 6.07877 27.1437 6.07877C32.6697 6.07877 37.6964 8.20993 41.4536 11.6904C37.6059 7.53674 32.1074 4.93457 25.9995 4.93457C14.3656 4.93457 4.93457 14.3657 4.93457 25.9998C4.93457 32.1078 7.53671 37.6063 11.6903 41.4541C8.20916 37.6962 6.07803 32.6701 6.07803 27.144Z" fill="#D2068C"/>
<path d="M51.987 26.4986C51.8638 19.9543 49.3232 14.0015 45.2218 9.49493C40.5762 4.08841 33.6879 0.664493 26.0004 0.664493C18.3128 0.664493 11.423 4.08913 6.77672 9.49565C2.67532 14.0014 0.13623 19.9543 0.0130433 26.4986C0.00942016 26.3326 0 26.1674 0 26C0 11.6406 11.6404 0 26.0004 0C26.4975 0 26.9909 0.0137681 27.4808 0.0413043C27.5714 0.0463768 27.6627 0.0521739 27.7525 0.057971C34.2017 0.486957 40.0074 3.26812 44.3197 7.55C44.3414 7.57174 44.3632 7.59275 44.3849 7.61449C44.4211 7.65073 44.4581 7.68768 44.4943 7.72536C44.5088 7.73986 44.5226 7.75435 44.5371 7.76884C44.5501 7.78261 44.5631 7.79565 44.5762 7.8087C44.6008 7.83333 44.6255 7.85942 44.6501 7.88406C48.8189 12.1754 51.5188 17.8993 51.9413 24.2464C51.9486 24.3515 51.9551 24.4565 51.9601 24.5623C51.9645 24.6362 51.9681 24.7116 51.9717 24.7862C51.9812 24.9906 51.9884 25.1957 51.9928 25.4015C51.9971 25.6007 51.9993 25.7993 51.9993 25.9993C51.9993 26.1667 51.9899 26.3312 51.987 26.4978V26.4986Z" fill="#FF3CBE"/>
<path d="M38.7063 26.1628C38.9638 26.1591 39.2793 26.2876 39.4316 26.4557C39.7101 26.7641 39.8366 27.5646 39.4444 27.7033C38.8941 27.8992 38.0698 26.8453 38.3515 26.3346C38.4173 26.2155 38.5511 26.1651 38.7063 26.1628ZM17.0313 26.5424C17.8154 26.5289 18.5682 26.7217 18.2711 27.1461C18.112 27.3738 15.6553 28.8243 15.0177 28.5912C14.4 28.3656 15.2319 27.1019 15.8077 26.7835C16.0799 26.6329 16.5617 26.5502 17.0314 26.5414L17.0313 26.5424ZM26.177 25.6369C26.695 25.6249 27.3561 26.2963 27.258 26.7922C27.1529 27.3263 26.1405 27.701 25.7237 27.3512C25.2863 26.9843 25.4807 25.848 26.0219 25.6643C26.0716 25.6477 26.123 25.6389 26.177 25.6379L26.177 25.6369ZM35.2696 24.4829C36.1908 24.4327 37.3095 25.8929 36.8993 26.7192C36.4622 27.5994 34.4528 27.6245 33.952 26.7784C33.5021 26.0188 34.3881 24.5295 35.2697 24.4819L35.2696 24.4829ZM22.8493 24.5997C22.8839 24.6009 22.9186 24.6021 22.9531 24.6071C23.8974 24.7245 24.5673 26.4526 24.0426 27.246C23.4772 28.1016 21.4328 28.1929 20.967 27.2796C20.4787 26.3211 21.7666 24.5826 22.8483 24.5987L22.8493 24.5997ZM29.9557 23.8879C30.688 23.891 31.5915 24.8552 31.53 25.5768C31.4659 26.3158 30.268 27.0956 29.6244 26.7274C28.8211 26.2679 28.8109 24.3293 29.6557 23.9499C29.7497 23.9078 29.8516 23.8882 29.9556 23.8889L29.9557 23.8879ZM20.3952 21.6748C20.5516 21.6676 20.4685 21.9799 20.2542 22.5508C19.8413 23.6497 19.6583 25.4331 17.9869 25.4111C17.3906 25.403 16.4316 25.2369 17.5257 24.283C18.3326 23.5784 19.0178 22.7414 19.8321 22.0457C20.1211 21.7983 20.3016 21.6792 20.3952 21.6748ZM32.5315 20.408C33.1221 20.385 33.902 21.2436 33.8152 21.8324C33.7548 22.2428 33.0601 22.5436 32.6887 22.3583C32.1146 22.0715 31.7374 20.7969 32.2921 20.4749C32.3658 20.4321 32.4465 20.4108 32.5305 20.4079L32.5315 20.408ZM25.4487 20.072C26.2064 20.0384 27.2345 20.8545 27.1146 21.5655C26.963 22.4672 25.1668 23.0721 24.5123 22.4337C23.9324 21.8682 24.4519 20.3575 25.2228 20.1114C25.2939 20.0888 25.3695 20.076 25.4477 20.0729L25.4487 20.072ZM29.7554 18.6034C29.9946 18.5972 30.2212 18.6522 30.3737 18.7847C30.9744 19.3076 30.8791 20.9504 30.1106 21.159C29.3322 21.3702 28.3943 19.9789 28.6634 19.2191C28.7926 18.8554 29.2972 18.6155 29.7545 18.6033L29.7554 18.6034ZM23.0693 18.6434C23.4323 18.6251 23.8863 18.8191 23.9265 19.1347C24.0285 19.9198 22.6507 21.0539 22.0286 20.565C21.4937 20.1446 22.2087 18.9491 22.8382 18.6914C22.9066 18.6639 22.9853 18.6483 23.0692 18.6444L23.0693 18.6434ZM26.9594 15.9519C24.7937 16.0111 23.1727 16.8467 21.6862 18.4492L14.1108 26.3288C13.0799 27.2936 12.1499 29.3597 13.2007 30.859C16.2176 28.171 19.7156 28.6609 21.4215 28.7149C23.3895 28.884 24.6215 29.2966 27.3255 29.2223C30.0295 29.1479 31.2373 28.6682 33.1928 28.3906C34.8922 28.243 38.3583 27.5608 41.5184 30.0793C42.4847 28.5253 41.4429 26.5136 40.3601 25.6059L32.3625 18.1556C30.7899 16.6373 29.1252 15.8927 26.9594 15.9529L26.9594 15.9519Z" fill="#BE0078"/>
<path d="M25.7315 30.3842L25.8054 31.9009C25.8768 34.4968 25.2859 34.5844 24.6317 35.3878C23.3465 36.9655 24.5872 38.2968 25.7534 37.6817C26.3481 37.4276 26.8443 37.2095 27.5446 37.1932C28.2441 37.1711 28.7522 37.3612 29.3594 37.5826C30.5577 38.1328 31.7229 36.7351 30.3533 35.2306C29.6559 34.4644 29.0612 34.4092 28.9889 31.8141L28.9796 30.2958L27.3607 30.5137L25.7325 30.3852L25.7315 30.3842Z" fill="#BE0078"/>
<path d="M36.0044 29.6151C35.2444 29.6303 34.4943 29.723 33.7454 29.8099C34.8027 30.4786 36.0969 30.93 37.626 31.2199C38.3461 31.3565 38.0611 31.8787 37.5043 31.8691C34.9471 31.8232 30.8397 29.0234 32.1395 30.4571C32.666 31.0371 33.1887 31.2219 33.8194 31.713C34.4971 32.2405 34.0321 32.5608 33.4714 32.3573C32.4005 31.9705 30.8018 30.3743 30.4655 30.7337C30.1443 31.0773 30.825 31.6829 31.0917 31.9167C31.5257 32.2979 30.9441 33.1192 30.4996 32.2885C30.3537 33.0246 30.6872 33.4717 31.1879 33.8196C34.1479 33.7001 37.095 33.4809 39.8741 31.9017C40.847 31.6365 40.6178 30.9887 39.9349 30.5873C38.569 29.7836 37.2736 29.5914 36.0063 29.6161L36.0044 29.6151ZM18.6814 30.0928C17.4144 30.1378 16.1322 30.401 14.8123 31.2787C14.1524 31.7176 13.96 32.3769 14.9454 32.5883C17.8069 34.0132 20.7618 34.0689 23.724 34.0256C24.2044 33.6518 24.5125 33.1864 24.3265 32.459C23.9279 33.3127 23.3016 32.5258 23.7146 32.1208C23.967 31.8732 24.6137 31.2305 24.2741 30.9055C23.9187 30.5646 22.4101 32.2464 21.3625 32.6921C20.8138 32.9257 20.3315 32.6315 20.9793 32.0679C21.5815 31.5432 22.0938 31.3305 22.5871 30.722C23.806 29.2201 19.8592 32.2413 17.3084 32.4279C16.7528 32.4685 16.4397 31.9633 17.1503 31.7864C18.6609 31.4115 19.929 30.8896 20.9476 30.1643C20.1946 30.119 19.4407 30.068 18.6813 30.0948L18.6814 30.0928Z" fill="#BE0078"/>
<path d="M37.2568 24.401C37.5142 24.4062 37.8251 24.5455 37.9715 24.7188C38.2392 25.0366 38.3381 25.8409 37.9413 25.9661C37.3846 26.1429 36.5971 25.0612 36.8963 24.5605C36.9661 24.4437 37.1015 24.398 37.2568 24.401ZM15.5816 24.033C16.3656 24.0467 17.1113 24.2652 16.7999 24.6791C16.6329 24.9013 14.1278 26.2662 13.4985 26.0113C12.8889 25.7645 13.764 24.5302 14.3504 24.2318C14.6276 24.0907 15.112 24.0247 15.5817 24.0321L15.5816 24.033ZM24.7531 23.4434C25.2712 23.4493 25.9087 24.1431 25.7936 24.6353C25.6701 25.1655 24.6454 25.5051 24.2409 25.1411C23.8164 24.7594 24.0498 23.6304 24.5971 23.4655C24.6474 23.4506 24.699 23.4436 24.753 23.4444L24.7531 23.4434ZM33.8801 22.6036C34.8024 22.5852 35.8701 24.0831 35.4317 24.8947C34.9645 25.7594 32.9554 25.7152 32.484 24.8523C32.0606 24.0777 32.9974 22.6198 33.8801 22.6026L33.8801 22.6036ZM21.463 22.2921C21.4976 22.2945 21.5322 22.2969 21.5666 22.3031C22.5063 22.453 23.1162 24.2032 22.5645 24.978C21.9699 25.8136 19.9236 25.8344 19.4895 24.9055C19.0346 23.9308 20.3816 22.2377 21.4622 22.2911L21.463 22.2921ZM28.5898 21.8258C29.3216 21.8542 30.1913 22.8488 30.1049 23.568C30.0155 24.3043 28.7914 25.0423 28.1608 24.6521C27.3738 24.1652 27.4304 22.2275 28.2879 21.8773C28.3832 21.8386 28.4857 21.8225 28.5897 21.8268L28.5898 21.8258ZM19.1113 19.2843C19.2679 19.2826 19.1741 19.5918 18.9401 20.155C18.4897 21.239 18.2453 23.015 16.5756 22.9354C15.98 22.9068 15.0273 22.7077 16.1535 21.792C16.9843 21.1157 17.6979 20.3028 18.5357 19.6356C18.8331 19.3983 19.0176 19.2856 19.1113 19.2843ZM31.284 18.4367C31.8751 18.4341 32.625 19.3191 32.5179 19.9045C32.4433 20.3126 31.7387 20.5893 31.3739 20.3913C30.81 20.0849 30.477 18.798 31.0425 18.4953C31.1176 18.4551 31.1991 18.4366 31.2831 18.4366L31.284 18.4367ZM24.217 17.8567C24.9755 17.8492 25.9749 18.7003 25.8305 19.4068C25.6479 20.3027 23.8319 20.8454 23.1998 20.1847C22.6397 19.5995 23.211 18.1077 23.9899 17.8883C24.0618 17.8682 24.1378 17.858 24.216 17.8576L24.217 17.8567ZM28.5718 16.5375C28.8111 16.5395 29.0356 16.6023 29.1835 16.74C29.7658 17.2833 29.614 18.9219 28.8387 19.1039C28.0535 19.2881 27.1641 17.8653 27.4593 17.1152C27.6009 16.7562 28.1135 16.5338 28.5709 16.5374L28.5718 16.5375ZM21.8883 16.347C22.2517 16.3412 22.6988 16.5507 22.728 16.8675C22.803 17.6557 21.3869 18.7416 20.782 18.2315C20.2619 17.7929 21.0177 16.6228 21.6557 16.3869C21.7251 16.3618 21.8042 16.3489 21.8882 16.348L21.8883 16.347ZM25.869 13.7912C23.7025 13.7757 22.0536 14.5549 20.5127 16.1052L12.6701 23.7189C11.6067 24.6476 10.606 26.6804 11.6045 28.215C14.7122 25.6327 18.1912 26.2428 19.8943 26.3557C21.8553 26.5925 23.0723 27.0474 25.7772 27.0663C28.4822 27.0852 29.7058 26.6474 31.6697 26.4374C33.3732 26.3485 36.8608 25.7862 39.9321 28.4121C40.9515 26.8924 39.9796 24.846 38.9288 23.9015L31.1928 16.1798C29.6735 14.6082 28.0354 13.8067 25.8689 13.7921L25.869 13.7912Z" fill="white"/>
<path d="M24.1449 28.1713L24.1665 29.6896C24.1483 32.2865 23.5547 32.3536 22.8732 33.1339C21.5344 34.6664 22.7285 36.0397 23.9152 35.4652C24.5183 35.2317 25.0217 35.0309 25.7221 35.0387C26.422 35.0408 26.9232 35.2482 27.5225 35.4904C28.7011 36.0816 29.9138 34.7249 28.5968 33.1741C27.9263 32.3843 27.3339 32.3086 27.3511 29.7126L27.3941 28.1949L25.7686 28.3568L24.1458 28.1723L24.1449 28.1713Z" fill="white"/>
<path d="M34.437 27.7565C33.677 27.7455 32.9241 27.8123 32.1726 27.8733C33.2062 28.5781 34.4841 29.0738 36.0023 29.4162C36.7172 29.5776 36.4144 30.0896 35.8583 30.0609C33.3042 29.9269 29.2958 26.9871 30.5454 28.4647C31.0515 29.0626 31.5676 29.2653 32.181 29.7778C32.84 30.3283 32.3643 30.6324 31.811 30.4098C30.7541 29.9863 29.2113 28.3359 28.8629 28.6835C28.53 29.0158 29.1894 29.6445 29.4478 29.8873C29.8684 30.2833 29.2589 31.0841 28.8433 30.2385C28.6721 30.9692 28.9899 31.4275 29.4784 31.7925C32.4408 31.7751 35.3937 31.6576 38.2256 30.1752C39.2071 29.9437 39.0003 29.2883 38.3316 28.8637C36.9943 28.0133 35.7062 27.7766 34.4389 27.7576L34.437 27.7565ZM17.1078 27.6367C15.84 27.6379 14.5495 27.8568 13.2002 28.6885C12.5255 29.1043 12.3105 29.7566 13.288 30.0018C16.0986 31.5246 19.0499 31.6821 22.0119 31.741C22.5048 31.384 22.8287 30.9294 22.668 30.1961C22.2402 31.0355 21.6414 30.2275 22.0681 29.837C22.3289 29.5982 22.9974 28.9782 22.6692 28.6418C22.3257 28.2888 20.7601 29.9176 19.6977 30.3269C19.1413 30.5414 18.6694 30.2308 19.3363 29.6898C19.9561 29.1862 20.4755 28.9913 20.9895 28.4002C22.2595 26.9412 18.2108 29.8245 15.6551 29.923C15.0985 29.9444 14.8029 29.4287 15.5192 29.2764C17.0419 28.9539 18.3272 28.476 19.3703 27.7863C18.6192 27.7151 17.8676 27.638 17.1077 27.6386L17.1078 27.6367Z" fill="white"/>
</g>
<defs>
<clipPath id="clip0_2004_2586">
<rect width="52" height="52" fill="white"/>
</clipPath>
</defs>
</svg>
