<svg width="599" height="582" viewBox="0 0 599 582" fill="none" xmlns="http://www.w3.org/2000/svg">
<g clip-path="url(#clip0_2230_4808)">
<path d="M384.777 0.87805C361.291 0.87805 338.051 7.41089 318.398 13.8032C202.022 51.6479 89.4613 129.374 1.44132 232.688C1.31827 232.828 1.24795 232.986 1.23037 233.179C-0.914317 254.868 6.82061 277.223 21.9389 292.941C35.9145 307.464 56.3593 316.139 76.6635 316.139C77.6304 316.139 78.6148 316.122 79.5817 316.086C75.1517 330.434 78.8785 348.118 88.6702 358.602C96.3876 366.856 107.955 371.791 119.628 371.791C122.669 371.791 125.675 371.457 128.575 370.807C117.325 407.528 129.894 449.904 158.214 469.906C172.418 479.951 190.437 485.483 208.931 485.483C228.356 485.483 247.061 479.477 261.722 468.571C270.511 484.447 285.893 496.687 301.17 499.901C304.967 500.691 308.887 501.095 312.843 501.095C325.658 501.095 338.157 496.968 348.195 489.434C362.452 536.973 398.419 572.253 440.1 579.454C446.587 580.578 453.284 581.14 460 581.14C499.817 581.14 538.72 561.541 561.503 530.018C598.138 479.336 607.174 413.078 589.103 327.484C573.598 253.954 541.199 179.547 512.615 113.903L511.63 111.62C484.664 49.6634 451.948 14.5057 411.639 4.14449C403.253 1.98444 394.2 0.895629 384.76 0.895629L384.777 0.87805Z" fill="white"/>
<path d="M460 580.244C498.973 580.244 537.912 561.154 560.8 529.474C643.546 414.991 567.199 241.415 510.839 111.936C490.711 65.679 460.334 17.5259 411.445 4.96953C402.673 2.72168 393.743 1.75577 384.778 1.75577C362.54 1.75577 340.02 7.69153 318.661 14.6283C196.08 54.4925 85.6467 135.187 2.10942 233.249C-0.000104993 254.639 7.68209 276.801 22.5894 292.308C36.5299 306.814 56.5704 315.243 76.6812 315.243C78.07 315.243 79.4587 315.208 80.8475 315.12C76.0132 329.064 79.2654 347.17 89.3559 357.97C97.0733 366.224 108.394 370.877 119.663 370.877C123.126 370.877 126.571 370.438 129.912 369.543C118.503 404.56 128.663 447.884 158.742 469.168C173.315 479.477 191.123 484.587 208.949 484.587C227.934 484.587 246.92 478.774 262.021 467.236C269.879 481.988 284.979 495.58 301.363 499.022C305.143 499.813 308.993 500.199 312.86 500.199C325.711 500.199 338.579 495.896 348.687 487.941C361.45 531.809 395.202 570.778 440.258 578.575C446.78 579.699 453.39 580.261 460 580.261M460 582C453.232 582 446.499 581.42 439.959 580.296C398.296 573.096 362.311 538.114 347.72 490.856C337.718 498.021 325.43 501.955 312.86 501.955C308.852 501.955 304.862 501.551 301.012 500.743C285.77 497.547 270.441 485.518 261.476 469.853C246.779 480.513 228.216 486.343 208.966 486.343C189.717 486.343 172.102 480.759 157.74 470.591C143.184 460.3 132.302 444.091 127.081 424.966C122.335 407.581 122.458 388.878 127.345 371.931C124.831 372.405 122.265 372.633 119.663 372.633C107.762 372.633 95.9482 367.593 88.0726 359.164C78.3512 348.75 74.4838 331.382 78.4391 316.964C77.859 316.964 77.2789 316.982 76.6988 316.982C56.166 316.982 35.4575 308.201 21.3237 293.502C6.01205 277.627 -1.81078 255.025 0.351483 233.074C0.386642 232.722 0.527277 232.389 0.755809 232.108C43.5792 181.847 92.028 137.628 144.731 100.679C200.053 61.8858 258.399 32.3827 318.099 12.9599C337.823 6.55003 361.151 -0.000357868 384.76 -0.000357868C394.288 -0.000357868 403.394 1.106 411.867 3.2836C452.458 13.715 485.367 49.0309 512.439 111.251L513.441 113.534C542.043 179.231 574.442 253.673 589.964 327.29C608.071 413.147 599 479.617 562.206 530.527C539.248 562.296 500.081 582.017 459.982 582.017L460 582Z" fill="black"/>
<path d="M384.777 0.878172C361.291 0.878172 338.051 7.41101 318.398 13.8033C202.022 51.648 89.4613 129.374 1.44132 232.688C1.31827 232.828 1.24795 232.986 1.23037 233.179C-0.914317 254.868 6.82061 277.223 21.9389 292.941C35.9145 307.464 56.3593 316.139 76.6635 316.139C77.6304 316.139 78.6148 316.122 79.5817 316.087C75.1517 330.434 78.8785 348.118 88.6702 358.602C96.3876 366.856 107.955 371.791 119.628 371.791C122.669 371.791 125.675 371.457 128.575 370.808C117.325 407.528 129.894 449.904 158.214 469.906C172.418 479.951 190.437 485.483 208.931 485.483C228.356 485.483 247.061 479.477 261.722 468.572C270.511 484.447 285.893 496.687 301.17 499.901C304.967 500.691 308.887 501.095 312.843 501.095C325.658 501.095 338.157 496.968 348.195 489.434C362.452 536.973 398.419 572.254 440.1 579.454C446.587 580.578 453.284 581.14 460 581.14C499.817 581.14 538.72 561.541 561.503 530.019C598.138 479.337 607.174 413.078 589.103 327.484C573.598 253.955 541.199 179.547 512.615 113.903L511.63 111.62C484.664 49.6635 451.948 14.5058 411.639 4.14461C403.253 1.98456 394.2 0.895751 384.76 0.895751L384.777 0.878172Z" fill="white"/>
<path d="M460 580.244C498.973 580.244 537.912 561.154 560.8 529.474C643.546 414.992 567.199 241.415 510.839 111.936C490.711 65.6791 460.334 17.526 411.445 4.96965C402.673 2.7218 393.743 1.7559 384.778 1.7559C362.54 1.7559 340.02 7.69166 318.661 14.6284C196.08 54.4926 85.6467 135.187 2.10942 233.249C-0.000104993 254.639 7.68209 276.801 22.5894 292.308C36.5299 306.814 56.5704 315.243 76.6812 315.243C78.07 315.243 79.4587 315.208 80.8475 315.12C76.0132 329.064 79.2654 347.17 89.3559 357.97C97.0733 366.224 108.394 370.877 119.663 370.877C123.126 370.877 126.571 370.438 129.912 369.543C118.503 404.56 128.663 447.884 158.742 469.168C173.315 479.477 191.123 484.587 208.949 484.587C227.934 484.587 246.92 478.774 262.021 467.236C269.879 481.988 284.979 495.58 301.363 499.022C305.143 499.813 308.993 500.199 312.86 500.199C325.711 500.199 338.579 495.897 348.687 487.941C361.45 531.809 395.202 570.778 440.258 578.575C446.78 579.699 453.39 580.261 460 580.261M460 582C453.232 582 446.499 581.42 439.959 580.296C398.296 573.096 362.311 538.114 347.72 490.856C337.718 498.022 325.43 501.955 312.86 501.955C308.852 501.955 304.862 501.551 301.012 500.744C285.77 497.547 270.441 485.518 261.476 469.853C246.779 480.513 228.216 486.343 208.966 486.343C189.717 486.343 172.102 480.759 157.74 470.591C143.184 460.3 132.302 444.091 127.081 424.966C122.335 407.581 122.458 388.878 127.345 371.931C124.831 372.405 122.265 372.634 119.663 372.634C107.762 372.634 95.9482 367.594 88.0726 359.164C78.3512 348.75 74.4838 331.382 78.4391 316.964C77.859 316.964 77.2789 316.982 76.6988 316.982C56.166 316.982 35.4575 308.201 21.3237 293.502C6.01205 277.627 -1.81078 255.025 0.351483 233.074C0.386642 232.723 0.527277 232.389 0.755809 232.108C43.5792 181.847 92.028 137.628 144.731 100.679C200.053 61.8859 258.399 32.3829 318.099 12.96C337.823 6.55015 361.151 -0.000235797 384.76 -0.000235797C394.288 -0.000235797 403.394 1.10612 411.867 3.28372C452.458 13.7152 485.367 49.031 512.439 111.251L513.441 113.534C542.043 179.231 574.442 253.673 589.964 327.29C608.071 413.148 599 479.617 562.206 530.528C539.248 562.296 500.081 582.017 459.982 582.017L460 582Z" fill="black"/>
<path d="M18.6518 177.914C16.6302 178.212 14.6085 178.493 12.6045 178.792C20.2691 209.542 41.171 236.744 68.9288 252.075C96.6867 267.406 130.879 270.62 161.01 260.751C159.181 284.651 164.508 310.326 184.338 323.796C204.185 337.283 231.31 339.232 252.88 328.748C255.692 356.723 280.866 381.748 308.852 384.839C336.821 387.93 364.737 375.391 386.079 357.092C422.134 405.403 490.94 422.367 538.966 385.928C562.048 368.437 577.852 342.428 586.009 314.664C606.102 246.262 579.768 169.818 530.862 117.907C481.957 65.9954 413.573 36.0006 343.993 20.1076C274.326 4.19707 196.344 2.56384 136.574 41.708C108.94 59.8138 87.1762 85.3479 65.8173 110.531C47.482 132.131 36.9519 156.313 18.6166 177.914H18.6518Z" fill="#FF18B2" stroke="black" stroke-width="2" stroke-linecap="round" stroke-linejoin="round"/>
</g>
<defs>
<clipPath id="clip0_2230_4808">
<rect width="599" height="582" fill="white" transform="matrix(1 0 0 -1 0 582)"/>
</clipPath>
</defs>
</svg>
