<svg width="23" height="24" viewBox="0 0 23 24" fill="none" xmlns="http://www.w3.org/2000/svg">
<path d="M0.228616 13.0586C0.0761805 13.0586 -3.71839e-05 12.9829 -3.71706e-05 12.8317L-3.70208e-05 11.1174C-3.70075e-05 10.9661 0.0761807 10.8905 0.228616 10.8905L9.93363 10.8905L9.93363 0.226645C9.93363 0.075385 10.0098 -0.000245202 10.1623 -0.000245189L11.9153 -0.000245036C12.0847 -0.000245021 12.1693 0.0753852 12.1693 0.226646L12.1693 10.8905L21.9252 10.8905C22.0776 10.8905 22.1538 10.9661 22.1538 11.1174L22.1538 12.8317C22.1538 12.983 22.0776 13.0586 21.9252 13.0586L12.1693 13.0586L12.1693 23.7729C12.1693 23.9241 12.0846 23.9998 11.9153 23.9998L10.1623 23.9998C10.0098 23.9998 9.93363 23.9241 9.93363 23.7729L9.93363 13.0586L0.228616 13.0586Z" fill="#FF18B2"/>
</svg>
