<svg width="1338" height="337" viewBox="0 0 1338 337" fill="none" xmlns="http://www.w3.org/2000/svg">
<path d="M73.14 94.2H26.42V139H4.18V32.76H79.86V51.32H26.42V75.48H73.14V94.2ZM133.441 51.16H104.801V79.48H132.641C144.481 79.48 148.961 73.56 148.961 65.4C148.961 57.08 144.481 51.16 133.441 51.16ZM166.881 139H145.121V111.64C145.121 101.4 141.281 97.4 128.481 97.4H104.801V139H83.2012V32.76H137.121C156.801 32.76 169.761 45.88 169.761 63.48C169.761 74.84 164.161 84.44 153.921 88.12C163.361 91.16 166.881 96.44 166.881 108.92V139ZM254.581 139H173.941V32.76H252.021V51.32H195.541V74.04H247.541V92.76H195.541V120.12H254.581V139ZM340.378 141.24H359.898C359.898 161.56 346.298 176.28 327.578 176.28C309.978 176.28 297.338 163.16 297.338 144.28V140.92C270.778 137.24 256.058 119.16 256.058 86.84C256.058 50.84 274.458 29.24 307.098 29.24C339.738 29.24 357.818 50.84 357.818 87.32C357.818 112.92 343.738 135.64 317.978 139.64C317.978 151.64 322.778 156.92 329.498 156.92C335.578 156.92 340.378 151.64 340.378 141.24ZM307.098 123.64C323.098 123.64 335.898 112.44 335.898 87.32C335.898 62.2 325.658 48.92 307.098 48.92C288.378 48.92 277.978 62.2 277.978 87.32C277.978 112.44 288.698 123.64 307.098 123.64ZM425.801 103.64V32.76H448.521V103.64C448.521 129.4 432.681 142.68 404.841 142.68C379.081 142.68 362.921 130.52 362.921 104.92V32.76H385.481V102.84C385.481 115.96 392.521 124.28 404.521 124.28C418.761 124.28 425.801 117.56 425.801 103.64ZM535.551 139H454.911V32.76H532.991V51.32H476.511V74.04H528.511V92.76H476.511V120.12H535.551V139ZM624.868 139H604.388L558.948 67.64V139H538.308V32.76H561.828L604.068 101.08V32.76H624.868V139ZM682.279 139H660.039V51.32H628.039V32.76H714.439V51.32H682.279V139ZM792.792 139H717.912V32.76H740.152V119.64H792.792V139ZM823.086 139H800.846V98.84L764.046 32.76H789.966L812.366 75.96L833.006 32.76H858.606L823.086 99.16V139ZM64.82 258.84L51.54 216.6H51.38L37.78 258.84H64.82ZM102.1 299H77.94L71.22 277.08H32.02L24.5 299H0.98L38.9 192.76H64.66L102.1 299ZM181.513 224.12H160.393C159.273 213.24 152.712 207.96 139.273 207.96C126.792 207.96 120.232 212.44 120.232 220.44C120.232 227.16 124.872 231 136.713 233.88C148.712 236.76 160.393 239.64 168.233 243.16C177.513 247.32 184.873 253.88 184.873 268.92C184.873 292.28 167.273 302.68 142.472 302.68C116.232 302.68 97.9925 291 97.5125 267.16H118.952C119.272 278.04 128.393 284.76 142.633 284.76C155.752 284.76 163.273 279.16 163.273 269.72C163.273 263.48 160.073 259.16 146.792 256.28C133.672 253.4 125.192 251.48 117.672 248.12C106.312 243 99.9125 235.32 99.9125 221.88C99.9125 202.84 112.872 189.24 138.792 189.24C165.672 189.24 180.713 203.8 181.513 224.12ZM280.949 299H253.909L222.389 251.16L210.549 262.84V299H188.629V192.76H210.549V235.96L251.189 192.76H279.989L238.069 234.68L280.949 299ZM364.071 299H283.431V192.76H361.511V211.32H305.031V234.04H357.031V252.76H305.031V280.12H364.071V299ZM388.427 280.92H406.827C426.187 280.92 434.507 268.76 434.507 244.76C434.507 220.76 426.187 211.16 404.907 211.16H388.427V280.92ZM411.307 299H366.827V192.76H407.947C436.747 192.76 457.227 212.44 457.227 244.76C457.227 277.08 438.827 299 411.307 299ZM582.129 301.24H601.649C601.649 321.56 588.049 336.28 569.329 336.28C551.729 336.28 539.089 323.16 539.089 304.28V300.92C512.529 297.24 497.809 279.16 497.809 246.84C497.809 210.84 516.209 189.24 548.849 189.24C581.489 189.24 599.569 210.84 599.569 247.32C599.569 272.92 585.489 295.64 559.729 299.64C559.729 311.64 564.529 316.92 571.249 316.92C577.329 316.92 582.129 311.64 582.129 301.24ZM548.849 283.64C564.849 283.64 577.649 272.44 577.649 247.32C577.649 222.2 567.409 208.92 548.849 208.92C530.129 208.92 519.729 222.2 519.729 247.32C519.729 272.44 530.449 283.64 548.849 283.64ZM667.552 263.64V192.76H690.272V263.64C690.272 289.4 674.432 302.68 646.592 302.68C620.832 302.68 604.672 290.52 604.672 264.92V192.76H627.232V262.84C627.232 275.96 634.272 284.28 646.272 284.28C660.512 284.28 667.552 277.56 667.552 263.64ZM777.302 299H696.662V192.76H774.742V211.32H718.262V234.04H770.262V252.76H718.262V280.12H777.302V299ZM861.339 224.12H840.219C839.099 213.24 832.539 207.96 819.099 207.96C806.619 207.96 800.059 212.44 800.059 220.44C800.059 227.16 804.699 231 816.539 233.88C828.539 236.76 840.219 239.64 848.059 243.16C857.339 247.32 864.699 253.88 864.699 268.92C864.699 292.28 847.099 302.68 822.299 302.68C796.059 302.68 777.819 291 777.339 267.16H798.779C799.099 278.04 808.219 284.76 822.459 284.76C835.579 284.76 843.099 279.16 843.099 269.72C843.099 263.48 839.899 259.16 826.619 256.28C813.499 253.4 805.019 251.48 797.499 248.12C786.139 243 779.739 235.32 779.739 221.88C779.739 202.84 792.699 189.24 818.619 189.24C845.499 189.24 860.539 203.8 861.339 224.12ZM914.655 299H892.415V211.32H860.415V192.76H946.815V211.32H914.655V299ZM1073.72 283.64C1089.72 283.64 1102.52 272.44 1102.52 247.32C1102.52 222.2 1092.28 208.92 1073.72 208.92C1055 208.92 1044.6 222.2 1044.6 247.32C1044.6 272.44 1055.32 283.64 1073.72 283.64ZM1073.72 302.68C1041.08 302.68 1022.68 282.68 1022.68 246.84C1022.68 210.84 1041.08 189.24 1073.72 189.24C1106.36 189.24 1124.44 210.84 1124.44 247.32C1124.44 283.8 1106.36 302.68 1073.72 302.68ZM1215.94 299H1195.46L1150.02 227.64V299H1129.38V192.76H1152.9L1195.14 261.08V192.76H1215.94V299ZM1303.43 224.12H1282.31C1281.19 213.24 1274.63 207.96 1261.19 207.96C1248.71 207.96 1242.15 212.44 1242.15 220.44C1242.15 227.16 1246.79 231 1258.63 233.88C1270.63 236.76 1282.31 239.64 1290.15 243.16C1299.43 247.32 1306.79 253.88 1306.79 268.92C1306.79 292.28 1289.19 302.68 1264.39 302.68C1238.15 302.68 1219.91 291 1219.43 267.16H1240.87C1241.19 278.04 1250.31 284.76 1264.55 284.76C1277.67 284.76 1285.19 279.16 1285.19 269.72C1285.19 263.48 1281.99 259.16 1268.71 256.28C1255.59 253.4 1247.11 251.48 1239.59 248.12C1228.23 243 1221.83 235.32 1221.83 221.88C1221.83 202.84 1234.79 189.24 1260.71 189.24C1287.59 189.24 1302.63 203.8 1303.43 224.12Z" fill="black"/>
<path d="M1041.82 87.7093C1043.31 87.6369 1045.15 88.3159 1046.07 89.2563C1047.74 90.9815 1048.63 95.5782 1046.39 96.4575C1043.25 97.6985 1038.28 91.7773 1039.81 88.7722C1040.16 88.071 1040.92 87.7538 1041.82 87.7093ZM916.74 94.2204C921.264 93.9866 925.649 94.9494 924.019 97.4592C923.145 98.806 909.249 107.671 905.521 106.452C901.909 105.273 906.461 97.8098 909.722 95.8565C911.264 94.9327 914.03 94.3595 916.74 94.2148V94.2204ZM969.368 87.1695C972.357 86.9969 976.308 90.7422 975.841 93.6249C975.34 96.7302 969.569 99.0953 967.092 97.1587C964.493 95.1275 965.389 88.5273 968.478 87.3587C968.762 87.2529 969.057 87.1917 969.368 87.175V87.1695ZM1021.64 78.6939C1026.95 78.2209 1033.7 86.4293 1031.5 91.282C1029.15 96.4519 1017.55 96.9973 1014.49 92.2114C1011.74 87.9152 1016.56 79.1391 1021.64 78.6883V78.6939ZM949.946 81.8437C950.147 81.8437 950.347 81.8437 950.547 81.866C956.023 82.3557 960.236 92.2002 957.365 96.886C954.27 101.939 942.484 102.874 939.612 97.693C936.601 92.2559 943.691 81.9606 949.941 81.8381L949.946 81.8437ZM990.838 76.3176C995.068 76.1896 1000.48 81.5766 1000.27 85.7559C1000.04 90.0354 993.281 94.7769 989.492 92.779C984.761 90.2859 984.316 79.0946 989.119 76.735C989.653 76.4734 990.237 76.3399 990.838 76.3232V76.3176ZM935.193 65.4435C936.095 65.3712 935.678 67.1909 934.553 70.53C932.389 76.9576 931.687 87.2919 922.032 87.4978C918.587 87.5701 913.017 86.8022 919.144 81.0757C923.663 76.8463 927.452 71.8767 932.016 67.6974C933.635 66.2115 934.654 65.488 935.193 65.4435ZM1005.02 55.7103C1008.42 55.4598 1013.1 60.2625 1012.71 63.6794C1012.45 66.0612 1008.5 67.9367 1006.31 66.9405C1002.94 65.399 1000.51 58.1143 1003.65 56.1443C1004.07 55.8828 1004.53 55.7436 1005.01 55.7103H1005.02ZM964.054 55.1816C968.422 54.8365 974.522 59.3442 973.971 63.4735C973.275 68.7102 963.024 72.5612 959.118 69.0051C955.656 65.8553 958.355 57.0292 962.757 55.4543C963.163 55.3096 963.597 55.2205 964.048 55.1871L964.054 55.1816ZM988.629 45.8434C990.009 45.7599 991.328 46.0326 992.235 46.7672C995.808 49.6666 995.585 59.1717 991.189 60.5296C986.737 61.9041 981.044 54.0574 982.446 49.6165C983.12 47.4907 985.986 46.0048 988.623 45.8434H988.629ZM950.03 47.4072C952.122 47.2291 954.782 48.2587 955.077 50.0729C955.823 54.5861 948.093 61.4088 944.404 58.7098C941.231 56.3892 945.121 49.3438 948.705 47.73C949.095 47.5575 949.546 47.4517 950.03 47.4128V47.4072ZM971.956 31.0905C959.463 31.864 950.269 37.0117 942.005 46.5613L899.833 93.5693C894.073 99.3458 889.115 111.461 895.481 119.909C912.366 103.787 932.661 105.918 942.523 105.89C953.92 106.475 961.115 108.612 976.714 107.643C992.313 106.675 999.191 103.664 1010.43 101.672C1020.21 100.481 1040.09 95.8509 1058.84 109.764C1064.11 100.598 1057.69 89.1896 1051.26 84.1643L1003.59 42.7381C994.211 34.2848 984.45 30.3169 971.956 31.096V31.0905Z" fill="#FF18B2"/>
<path d="M967.742 114.666L968.471 123.409C969.401 138.385 966.006 139.008 962.389 143.777C955.282 153.143 962.712 160.584 969.323 156.799C972.706 155.213 975.528 153.856 979.568 153.622C983.603 153.355 986.575 154.351 990.125 155.508C997.154 158.447 1003.6 150.144 995.395 141.729C991.216 137.444 987.771 137.244 986.836 122.274L986.48 113.509L977.175 115.089L967.748 114.672L967.742 114.666Z" fill="black"/>
<path d="M1026.91 108.178C1022.52 108.417 1018.21 109.101 1013.9 109.752C1020.14 113.403 1027.7 115.752 1036.59 117.121C1040.77 117.766 1039.23 120.838 1036.02 120.894C1021.24 121.139 996.966 105.79 1004.76 113.809C1007.91 117.054 1010.97 118.017 1014.71 120.727C1018.73 123.637 1016.1 125.579 1012.83 124.516C1006.57 122.496 997.016 113.598 995.146 115.74C993.36 117.788 997.411 121.15 998.997 122.446C1001.58 124.561 998.385 129.419 995.652 124.711C994.957 128.991 996.971 131.506 999.932 133.415C1017 132.135 1033.97 130.282 1049.71 120.61C1055.27 118.885 1053.82 115.189 1049.79 113.008C1041.75 108.639 1034.23 107.788 1026.92 108.183L1026.91 108.178ZM926.974 114.388C919.667 114.9 912.316 116.675 904.87 122.007C901.147 124.672 900.167 128.518 905.899 129.542C922.706 137.199 939.779 136.932 956.875 136.092C959.574 133.838 961.26 131.089 960.042 126.926C957.91 131.935 954.137 127.516 956.441 125.095C957.849 123.615 961.455 119.775 959.429 117.966C957.309 116.069 948.934 126.08 942.974 128.863C939.852 130.321 937.008 128.718 940.636 125.335C944.009 122.185 946.925 120.855 949.652 117.243C956.391 108.328 934.203 126.559 919.511 128.145C916.311 128.49 914.403 125.635 918.471 124.472C927.119 122.007 934.337 118.74 940.074 114.349C935.717 114.238 931.354 114.093 926.974 114.399V114.388Z" fill="#E10094"/>
<path d="M974.226 310.573C975.65 310.756 979.379 323.79 997.376 325.059C1009.04 325.882 970.603 336.556 973.308 313.979C973.608 311.474 973.825 310.517 974.226 310.567V310.573ZM981.499 161.769C981.048 161.769 980.581 161.78 980.08 161.814C976.09 162.064 973.975 163.132 971.371 165.57C975.194 201.487 978.283 283.827 968.85 303.049C961.86 317.29 968.065 337.597 990.91 336.178C1013.76 334.759 1017.4 313.84 1008.7 300.572C996.959 282.664 989.836 200.574 989.185 164.463C986.664 162.632 984.638 161.786 981.499 161.769Z" fill="black"/>
</svg>
