<svg width="100" height="100" viewBox="0 0 100 100" fill="none" xmlns="http://www.w3.org/2000/svg">
<path fill-rule="evenodd" clip-rule="evenodd" d="M40.3843 96.3796C5.08109 88.3203 17.0338 71.0064 9.96484 51.9729C16.2334 51.3882 23.9343 68.6946 22.5999 60.6871C14.4911 28.7317 46.356 30.3928 38.4159 2.5C69.6763 6.77916 58.1198 35.1857 72.3643 43.535C76.3326 44.5439 81.4002 41.6903 73.6403 26.3543C107.31 65.9586 83.4322 97.7504 53.1334 97.4985C85.0974 87.8732 58.4212 60.0414 44.2966 50.3896C43.6546 66.2048 60.7325 77.6329 49.0476 83.0901C49.3264 78.372 49.3693 73.5982 37.8764 66.6542C42.0406 84.9616 27.604 82.4481 40.3843 96.3796Z" fill="#FF18B2"/>
</svg>
