<svg width="506" height="501" viewBox="0 0 506 501" fill="none" xmlns="http://www.w3.org/2000/svg">
<path fill-rule="evenodd" clip-rule="evenodd" d="M282.814 136.192C281.257 139.388 279.678 142.632 278.044 145.936L278.023 145.871C273.132 142.537 272.515 138.984 271.946 135.705C271.824 135 271.703 134.308 271.543 133.633C269.817 126.314 268.174 118.971 266.53 111.627C263.032 95.9921 259.533 80.3557 255.227 64.9486C249.738 45.3644 240.761 27.0728 225.435 13.0256C202.639 -7.85134 174.224 -3.19766 159.673 23.8626C148.501 44.6103 145.25 66.9523 147.984 90.393C150.541 112.422 155.826 133.908 161.34 156.326C162.325 160.327 163.316 164.359 164.301 168.428C157.816 167.794 153.159 165.28 148.784 162.918C147.365 162.152 145.975 161.402 144.562 160.737C120.668 149.49 95.8266 141.497 69.5218 138.438C53.2051 136.542 37.1682 137.49 22.2292 144.945C0.552502 155.738 -6.09903 178.511 5.95553 199.582C11.7891 209.794 20.6578 217.033 30.2584 223.389C53.3343 238.686 77.551 251.591 104.243 259.649C105.532 260.036 106.908 260.312 108.313 260.593C113.25 261.582 118.551 262.644 121.701 268.849C106.267 276.476 91.9089 285.137 78.9933 295.995C60.0504 311.938 45.1113 330.876 38.5674 355.071C29.6341 388.099 47.0917 407.878 80.8015 404.517C112.509 401.349 137.243 384.372 161.137 365.326C163.093 363.768 164.922 362.011 166.76 360.245C171.072 356.104 175.435 351.913 181.608 350.116C183.252 354.889 182.508 359.033 181.787 363.053C181.555 364.35 181.324 365.633 181.177 366.921C180.631 371.709 180.026 376.494 179.421 381.278C177.998 392.531 176.574 403.781 175.925 415.073C174.676 436.726 176.226 458.335 186.064 478.178C198.29 502.825 224.294 507.393 244.765 489.058C250.878 483.564 255.184 476.756 258.972 469.582C269.757 449.136 276.344 427.332 280.025 404.581C281.391 396.201 282.707 387.8 284.075 379.065C284.712 374.999 285.36 370.861 286.03 366.619C290.931 368.844 292.709 372.295 294.354 375.487C294.811 376.375 295.259 377.243 295.76 378.059C308.504 398.721 322.409 418.542 338.016 437.114C351.211 452.82 368.066 461.826 388.602 463.14C416.586 464.928 435.507 448.016 435.679 420.072C435.787 401.78 432.235 384.027 422.139 368.02C410.558 349.685 397.729 332.578 380.766 318.79C379.955 318.128 379.089 317.488 378.211 316.839C374.547 314.132 370.686 311.28 369.853 306.1C375.434 303.148 380.619 303.084 385.587 303.022C387.363 303 389.111 302.978 390.841 302.825C418.329 300.412 445.624 296.9 472.403 290.006C510.31 280.224 512.635 243.577 493.412 220.394C483.575 208.523 470.702 201.607 456.107 197.686C435.765 192.214 414.971 191.309 394.048 192.279C384.964 192.709 375.858 193.119 363.739 193.657C366.124 191.163 368.225 188.903 370.158 186.823C374.036 182.65 377.24 179.204 380.702 176.055C381.979 174.897 383.26 173.742 384.541 172.588C394.766 163.373 404.98 154.168 413.206 143.005C430.9 119.005 441.75 92.8276 438.693 62.1909C435.701 32.1574 419.965 20.4801 390.798 26.7496C369.745 31.2741 352.244 42.1757 336.724 56.6108C318.276 73.782 304.263 94.2711 292.639 116.484C289.28 122.916 286.099 129.447 282.814 136.192ZM331.149 238.945C322.861 208.803 300.603 193.356 264.956 193.291H264.978C263.941 193.291 262.905 193.27 261.869 193.249C259.592 193.203 257.318 193.157 255.054 193.334C228.62 195.489 205.523 215.267 198.312 241.789C191.316 267.47 200.916 298.301 220.182 312.089C243.366 328.679 275.439 329.347 297.805 312.994C314.767 300.584 326.585 284.361 331.472 263.42C333.409 255.103 333.409 247.175 331.149 238.945Z" fill="black"/>
</svg>
