<svg width="524" height="738" viewBox="0 0 524 738" fill="none" xmlns="http://www.w3.org/2000/svg">
<path d="M372.08 180.094C355.441 179.532 340.124 183.462 330.363 193.273C304.755 219.016 329.305 285.605 363.456 297.581C398.56 309.878 461.044 271.811 455.912 234.627C453.637 218.107 439.802 203.752 421.734 193.914C406.682 185.707 388.719 180.655 372.08 180.094ZM224.31 114.493C201.692 114.707 179.762 123.261 176.376 140.584C170.318 171.406 230.209 197.871 258.62 185.093C275.418 177.527 283.804 144.968 271.741 130.934C269.122 127.886 265.789 125.213 261.901 123.048C251.716 117.247 237.907 114.386 224.336 114.493H224.31ZM489.667 89.285C465.171 89.285 436.177 103.132 435.622 123.048C434.908 148.603 484.561 162.959 506.571 150.341C522.02 141.493 529.189 109.147 515.829 97.3046C514.507 96.1284 513.052 95.0859 511.465 94.2037C505.512 90.8355 497.841 89.285 489.667 89.285ZM435.013 10.6126C438.109 11.8156 441.23 13.072 444.352 14.4888C569.821 71.4013 563.79 110.831 597.439 172.315C600.984 178.784 605.058 186.697 608.92 193.968C583.26 220.085 567.07 261.439 580.191 288.813C593.18 315.973 633.046 331.29 670.24 331.263C697.804 413.384 702.883 492.752 630.268 514.859C571.118 532.877 505.01 529.107 435.093 513.71L423.374 473.077L502.576 505.369L439.22 452.386L532.575 501.039L470.329 434.716L571.118 493.714C554.161 468.586 532.601 442.602 520.644 418.41C559.848 452.894 631.141 525.739 612.914 428.06C607.121 396.971 555.404 364.946 512.549 354.173C408.586 328.029 332.003 404.402 218.437 318.111C174.365 284.616 127.966 239.038 56.1703 234.547C32.7852 233.103 42.4937 260.023 68.7093 269.432L152.224 299.452L51.3293 298.597L165.689 341.074L90.7452 339.096L177.884 376.548L146.563 400.286C81.2219 365.988 -31.4707 280.098 8.28916 205.302C49.504 127.752 159.472 121.551 238.806 56.5383C240.341 55.2819 266.742 31.3567 306.449 15.0501C325.786 39.804 360.679 59.8798 386.524 57.5274C406.999 55.6561 428.982 32.9606 434.987 10.6928L435.013 10.6126ZM335.997 5.29294C325.575 7.85922 315.734 11.174 306.581 14.9165C315.734 11.174 325.548 7.83249 335.997 5.29294ZM376.789 0C378.164 0 379.593 0.0801961 380.995 0.0801961C378.773 0.026732 376.551 0.026732 374.355 0.0801961C375.175 0.0801961 375.969 0 376.789 0Z" fill="white"/>
<path d="M415.227 380.979C398.201 444.386 408.014 487.003 424.826 524.514C447.321 574.674 384.446 546.781 362.541 501.261C311.704 551.914 273.765 534.364 283.176 477.956C244.191 504.683 187.429 510.152 238.695 437.05C187.617 456.777 119.112 450.919 197.967 392.851C297.789 423.259 366.67 395.262 415.254 381.005L415.227 380.979Z" fill="white"/>
<path d="M346.985 552.925C390.641 637.297 278.803 783.552 167.967 723.591C62.0096 666.275 104.04 548.999 194.308 494.46C193.712 506.879 199.836 518.017 209.998 523.225C198.102 539.383 191.381 554.981 198.4 569.03L228.724 535.537C243.764 535.083 254.414 529.127 265.416 523.599C268.451 537.834 272.543 551.696 285.524 562.433L276.933 603.831C292.786 600.252 300.591 587.192 305.062 570.258C320.78 569.163 334.492 562.753 346.985 552.925Z" fill="white"/>
</svg>
