<svg width="1633" height="575" viewBox="0 0 1633 575" fill="none" xmlns="http://www.w3.org/2000/svg">
<path d="M64.1731 433.61H136.112C162.272 433.61 177.804 416.851 177.804 394.779C177.804 371.072 162.272 360.445 136.93 360.445H64.1731V433.61ZM132.434 255.397H64.1731V314.256H135.704C158.185 314.256 170.038 304.038 170.038 284.827C170.038 263.981 159.002 255.397 132.434 255.397ZM131.616 479.798H9.40115V208.391H143.061C196.198 208.391 224.81 237.003 224.81 282.374C224.81 305.673 210.504 325.292 191.702 333.059C214.592 341.642 232.985 360.036 232.985 398.867C232.985 448.325 199.877 479.798 131.616 479.798ZM445.622 479.798H239.614V208.391H439.082V255.806H294.795V313.848H427.638V361.671H294.795V431.566H445.622V479.798ZM673.795 479.798H621.476L505.392 297.498V479.798H452.664V208.391H512.749L620.658 382.926V208.391H673.795V479.798ZM895.671 479.798H689.663V208.391H889.131V255.806H744.843V313.848H877.686V361.671H744.843V431.566H895.671V479.798ZM1078.88 365.35H959.528V479.798H902.712V208.391H1096.05V255.806H959.528V317.526H1078.88V365.35ZM1329.48 479.798H1272.67V255.806H1190.92V208.391H1411.64V255.806H1329.48V479.798ZM1619.37 288.505H1565.42C1562.56 260.711 1545.8 247.222 1511.47 247.222C1479.58 247.222 1462.82 258.667 1462.82 279.104C1462.82 296.271 1474.68 306.081 1504.93 313.439C1535.58 320.796 1565.42 328.154 1585.45 337.146C1609.16 347.773 1627.96 364.532 1627.96 402.954C1627.96 462.631 1583 489.199 1519.64 489.199C1452.61 489.199 1406.01 459.361 1404.78 398.458H1459.55C1460.37 426.253 1483.67 443.42 1520.05 443.42C1553.57 443.42 1572.78 429.114 1572.78 404.998C1572.78 389.057 1564.6 378.021 1530.68 370.663C1497.16 363.306 1475.5 358.401 1456.28 349.817C1427.26 336.737 1410.91 317.118 1410.91 282.783C1410.91 234.142 1444.02 199.399 1510.24 199.399C1578.91 199.399 1617.33 236.595 1619.37 288.505Z" fill="black"/>
<path d="M1247.23 95.1857C1249.73 95.0643 1252.83 96.2038 1254.36 97.7824C1257.16 100.678 1258.66 108.394 1254.9 109.87C1249.63 111.953 1241.29 102.014 1243.85 96.9698C1244.45 95.7929 1245.73 95.2604 1247.23 95.1857ZM1037.29 106.114C1044.88 105.722 1052.24 107.338 1049.51 111.551C1048.04 113.811 1024.72 128.691 1018.46 126.646C1012.4 124.665 1020.04 112.139 1025.51 108.861C1028.1 107.31 1032.74 106.348 1037.29 106.105V106.114ZM1125.62 94.2796C1130.64 93.9901 1137.27 100.276 1136.49 105.115C1135.65 110.327 1125.96 114.297 1121.8 111.046C1117.44 107.637 1118.95 96.5588 1124.13 94.5972C1124.61 94.4197 1125.1 94.317 1125.62 94.289V94.2796ZM1213.36 80.0535C1222.27 79.2595 1233.61 93.0373 1229.91 101.183C1225.96 109.86 1206.5 110.776 1201.36 102.742C1196.75 95.5313 1204.84 80.8008 1213.36 80.0442V80.0535ZM1093.03 85.3404C1093.36 85.3404 1093.7 85.3404 1094.03 85.3778C1103.23 86.1998 1110.3 102.724 1105.48 110.589C1100.28 119.07 1080.5 120.64 1075.68 111.943C1070.63 102.817 1082.53 85.5366 1093.02 85.3311L1093.03 85.3404ZM1161.66 76.065C1168.76 75.8501 1177.84 84.8921 1177.49 91.907C1177.11 99.0902 1165.76 107.049 1159.4 103.695C1151.46 99.5105 1150.71 80.7261 1158.78 76.7655C1159.67 76.3265 1160.65 76.1023 1161.66 76.0743V76.065ZM1068.26 57.8129C1069.78 57.6915 1069.08 60.746 1067.19 66.3505C1063.55 77.1392 1062.38 94.4851 1046.17 94.8307C1040.39 94.9522 1031.04 93.6631 1041.32 84.0514C1048.91 76.9523 1055.27 68.611 1062.93 61.596C1065.65 59.102 1067.36 57.8877 1068.26 57.8129ZM1185.46 41.4758C1191.18 41.0555 1199.03 49.1166 1198.38 54.8519C1197.93 58.8498 1191.3 61.9976 1187.64 60.3256C1181.98 57.7382 1177.9 45.5111 1183.16 42.2044C1183.87 41.7654 1184.64 41.5319 1185.45 41.4758H1185.46ZM1116.7 40.5884C1124.04 40.0093 1134.27 47.5754 1133.35 54.5063C1132.18 63.296 1114.98 69.7599 1108.42 63.7911C1102.61 58.5042 1107.14 43.6896 1114.53 41.0461C1115.21 40.8033 1115.94 40.6538 1116.7 40.5978L1116.7 40.5884ZM1157.95 24.9145C1160.27 24.7744 1162.48 25.2321 1164.01 26.4651C1170 31.3316 1169.63 47.2858 1162.25 49.565C1154.78 51.8722 1145.22 38.7016 1147.58 31.2476C1148.71 27.6794 1153.52 25.1854 1157.94 24.9145H1157.95ZM1093.17 27.5392C1096.68 27.2403 1101.14 28.9684 1101.64 32.0135C1102.89 39.589 1089.91 51.0408 1083.72 46.5105C1078.4 42.6154 1084.93 30.7899 1090.94 28.081C1091.6 27.7915 1092.35 27.614 1093.17 27.5486V27.5392ZM1129.97 0.151895C1109 1.45027 1093.57 10.0905 1079.7 26.1194L1008.91 105.022C999.243 114.717 990.921 135.052 1001.61 149.232C1029.95 122.171 1064.01 125.749 1080.56 125.702C1099.69 126.683 1111.77 130.27 1137.95 128.645C1164.14 127.019 1175.68 121.966 1194.54 118.622C1210.96 116.623 1244.33 108.851 1275.8 132.203C1284.64 116.819 1273.87 97.6704 1263.08 89.2356L1183.07 19.7023C1167.32 5.51354 1150.94 -1.1465 1129.97 0.161217V0.151895Z" fill="#FF18B2"/>
<path d="M1122.9 140.433L1124.12 155.107C1125.68 180.244 1119.98 181.29 1113.91 189.295C1101.98 205.016 1114.45 217.504 1125.55 211.153C1131.23 208.49 1135.96 206.211 1142.75 205.819C1149.52 205.371 1154.51 207.043 1160.47 208.985C1172.26 213.917 1183.09 199.981 1169.31 185.858C1162.3 178.665 1156.51 178.329 1154.95 153.202L1154.35 138.49L1138.73 141.143L1122.91 140.442L1122.9 140.433Z" fill="black"/>
<path d="M1222.2 129.541C1214.84 129.943 1207.6 131.092 1200.37 132.185C1210.84 138.313 1223.54 142.254 1238.45 144.552C1245.48 145.636 1242.89 150.792 1237.49 150.885C1212.69 151.296 1171.95 125.534 1185.02 138.994C1190.32 144.44 1195.45 146.056 1201.73 150.605C1208.47 155.49 1204.07 158.75 1198.57 156.966C1188.06 153.575 1172.03 138.639 1168.89 142.236C1165.89 145.673 1172.69 151.315 1175.36 153.491C1179.69 157.041 1174.33 165.195 1169.74 157.293C1168.57 164.476 1171.96 168.698 1176.93 171.902C1205.57 169.754 1234.06 166.643 1260.47 150.409C1269.81 147.513 1267.37 141.311 1260.62 137.649C1247.11 130.317 1234.49 128.888 1222.22 129.551L1222.2 129.541ZM1054.47 139.966C1042.2 140.825 1029.86 143.805 1017.36 152.753C1011.12 157.228 1009.47 163.682 1019.09 165.401C1047.3 178.254 1075.96 177.806 1104.65 176.395C1109.19 172.612 1112.02 167.998 1109.97 161.011C1106.39 169.418 1100.06 162.001 1103.93 157.938C1106.29 155.453 1112.34 149.008 1108.94 145.972C1105.38 142.787 1091.33 159.591 1081.32 164.261C1076.08 166.709 1071.31 164.019 1077.4 158.339C1083.06 153.052 1087.95 150.82 1092.53 144.758C1103.84 129.794 1066.6 160.394 1041.94 163.056C1036.57 163.636 1033.37 158.844 1040.19 156.891C1054.71 152.753 1066.82 147.27 1076.45 139.9C1069.14 139.714 1061.82 139.471 1054.47 139.985V139.966Z" fill="#E10094"/>
<path d="M1133.78 469.259C1136.17 469.567 1142.43 491.443 1172.64 493.573C1192.22 494.956 1127.7 512.871 1132.24 474.975C1132.74 470.772 1133.11 469.166 1133.78 469.25V469.259ZM1145.99 219.494C1145.23 219.494 1144.45 219.513 1143.61 219.569C1136.91 219.989 1133.36 221.782 1128.99 225.874C1135.4 286.16 1140.59 424.367 1124.76 456.63C1113.02 480.533 1123.44 514.618 1161.78 512.236C1200.14 509.854 1206.25 474.742 1191.65 452.473C1171.94 422.415 1159.98 284.628 1158.89 224.015C1154.66 220.942 1151.26 219.522 1145.99 219.494Z" fill="black"/>
</svg>
