<svg width="16" height="17" viewBox="0 0 16 17" fill="none" xmlns="http://www.w3.org/2000/svg">
  <g clip-path="url(#clip0_639_3497)">
    <path d="M16 5.1875V15.5625H11.2322C9.92203 15.5625 9.233 16.4509 9.16281 16.5H6.83719C6.766 16.4502 6.08681 15.5625 4.76781 15.5625H0V4.25H0.9375V14.625H4.77187C6.23694 14.625 7.05244 15.4516 7.25562 15.5625H8.74438C8.94747 15.4516 9.76319 14.625 11.2281 14.625H15.0625V5.1875H16Z" fill="white" />
    <path d="M6.59156 14.0616C6.02219 13.8153 5.40625 13.6875 4.77187 13.6875H1.875V2.375H2.8125V11.8125H4.21875C5.49625 11.8125 6.54125 12.8128 6.59156 14.0616Z" fill="white" />
    <path d="M11.2279 3.3125C10.2349 3.3125 9.27858 3.57262 8.43555 4.07003C8.45733 4.28297 8.46848 4.4995 8.46848 4.71875V14.6053C8.53127 14.5598 8.60305 14.5093 8.68483 14.4557C10.1322 13.4903 11.1295 13.6875 14.1247 13.6875V3.3125H11.2279Z" fill="white" />
    <path d="M7.53125 14.1562C7.53125 12.347 6.04528 10.875 4.21875 10.875H3.75V0.5C6.09347 0.5 7.53125 2.39253 7.53125 4.71875V14.1562Z" fill="white" />
  </g>
  <defs>
    <clipPath id="clip0_639_3497">
      <rect width="16" height="16" fill="white" transform="translate(0 0.5)" />
    </clipPath>
  </defs>
</svg>