<svg width="85" height="84" viewBox="0 0 85 84" fill="none" xmlns="http://www.w3.org/2000/svg">
<path d="M24.8447 10.6474H60.9203V3.27712C60.9203 1.40991 59.3913 0 57.6507 0C57.3118 0 56.9651 0.0533771 56.6198 0.167336L24.8447 10.6474Z" fill="black"/>
<path d="M67.4692 15.5594H17.5305C15.7219 15.5594 14.2559 17.0255 14.2559 18.8341V62.2773V80.7254C14.2559 82.534 15.7219 84 17.5305 84H67.4692C69.2778 84 70.7439 82.534 70.7439 80.7254V18.8341C70.7439 17.0257 69.2777 15.5594 67.4692 15.5594ZM26.1265 45.0845H26.838C27.8967 38.3063 33.2656 32.9373 40.0439 31.8786V30.648C40.0439 29.2916 41.1435 28.192 42.4999 28.192C43.8562 28.192 44.9559 29.2916 44.9559 30.648V31.8786C51.7341 32.9373 57.1031 38.3063 58.1618 45.0845H58.8732C60.2296 45.0845 61.3292 46.1842 61.3292 47.5405C61.3292 48.8969 60.2296 49.9965 58.8732 49.9965H26.1265C24.7702 49.9965 23.6705 48.8969 23.6705 47.5405C23.6705 46.1842 24.77 45.0845 26.1265 45.0845ZM41.3238 59.0877C41.3238 60.444 40.2241 61.5437 38.8678 61.5437H27.079C25.7226 61.5437 24.623 60.444 24.623 59.0877C24.623 57.7313 25.7226 56.6317 27.079 56.6317H38.8678C40.2241 56.6317 41.3238 57.7313 41.3238 59.0877ZM58.2592 71.3677H26.7405C25.3842 71.3677 24.2845 70.268 24.2845 68.9117C24.2845 67.5553 25.3842 66.4557 26.7405 66.4557H58.2592C59.6156 66.4557 60.7152 67.5553 60.7152 68.9117C60.7152 70.268 59.6156 71.3677 58.2592 71.3677Z" fill="black"/>
<path d="M53.1629 45.0844C52.0451 40.2306 47.6886 36.6001 42.5004 36.6001C37.3122 36.6001 32.9557 40.2307 31.8379 45.0844H53.1629Z" fill="black"/>
</svg>
