<svg width="613" height="788" viewBox="0 0 613 788" fill="none" xmlns="http://www.w3.org/2000/svg">
<path fill-rule="evenodd" clip-rule="evenodd" d="M256.847 204.073C254.355 209.191 251.825 214.385 249.21 219.675L249.175 219.571C241.345 214.233 240.357 208.544 239.445 203.293C239.249 202.165 239.057 201.056 238.801 199.976C236.036 188.257 233.405 176.499 230.773 164.74C225.171 139.705 219.569 114.667 212.674 89.9969C203.885 58.6383 189.511 29.3495 164.97 6.85682C128.469 -26.5717 82.9713 -19.1201 59.6711 24.2093C41.7822 57.4309 36.5776 93.2052 40.955 130.739C45.0496 166.012 53.5119 200.416 62.3409 236.311C63.9171 242.719 65.5049 249.174 67.0816 255.691C56.6978 254.675 49.2417 250.65 42.2358 246.868C39.9629 245.641 37.7374 244.44 35.4746 243.375C-2.78468 225.367 -42.5606 212.568 -84.6803 207.67C-110.807 204.634 -136.486 206.152 -160.406 218.088C-195.115 235.371 -205.766 271.836 -186.464 305.575C-177.123 321.927 -162.922 333.518 -147.55 343.695C-110.6 368.189 -71.8238 388.853 -29.0837 401.755C-27.0208 402.375 -24.8174 402.816 -22.5665 403.267C-14.6628 404.85 -6.17384 406.551 -1.13023 416.486C-25.8437 428.698 -48.8338 442.566 -69.5145 459.953C-99.8462 485.482 -123.767 515.805 -134.245 554.547C-148.549 607.432 -120.596 639.101 -66.6192 633.719C-15.848 628.648 23.7556 601.464 62.0149 570.968C65.1472 568.472 68.0761 565.659 71.0201 562.831C77.9243 556.2 84.9106 549.49 94.7938 546.612C97.4259 554.255 96.2355 560.891 95.081 567.327C94.7086 569.404 94.3399 571.459 94.1045 573.521C93.2304 581.188 92.2613 588.849 91.2922 596.51C89.013 614.527 86.7343 632.541 85.6943 650.623C83.6952 685.294 86.1768 719.895 101.929 751.668C121.506 791.134 163.144 798.447 195.922 769.089C205.711 760.293 212.605 749.391 218.671 737.903C235.94 705.165 246.487 670.253 252.381 633.823C254.568 620.406 256.675 606.956 258.866 592.97C259.886 586.459 260.924 579.832 261.997 573.038C269.844 576.6 272.691 582.126 275.325 587.237C276.058 588.659 276.774 590.049 277.577 591.356C297.982 624.44 320.248 656.178 345.237 685.915C366.366 711.064 393.354 725.484 426.237 727.588C471.045 730.452 501.342 703.371 501.618 658.627C501.79 629.338 496.103 600.912 479.938 575.28C461.394 545.922 440.851 518.531 413.69 496.452C412.392 495.392 411.005 494.367 409.599 493.329C403.731 488.993 397.55 484.427 396.215 476.133C405.152 471.406 413.454 471.303 421.409 471.204C424.253 471.169 427.053 471.134 429.821 470.889C473.837 467.025 517.542 461.402 560.42 450.363C621.118 434.701 624.841 376.02 594.061 338.9C578.309 319.891 557.697 308.818 534.328 302.539C501.756 293.776 468.46 292.328 434.957 293.88C420.412 294.57 405.832 295.225 386.426 296.088C390.244 292.095 393.608 288.475 396.703 285.145C402.914 278.463 408.043 272.945 413.587 267.903C415.632 266.048 417.684 264.199 419.735 262.351C436.107 247.596 452.462 232.856 465.633 214.983C493.966 176.552 511.338 134.637 506.443 85.5812C501.652 37.491 476.456 18.7931 429.752 28.832C396.043 36.0766 368.021 53.5326 343.169 76.6462C313.63 104.141 291.192 136.949 272.579 172.516C267.2 182.815 262.107 193.273 256.847 204.073ZM334.24 368.603C320.97 320.34 285.33 295.605 228.251 295.502H228.285C226.626 295.502 224.966 295.468 223.307 295.434C219.661 295.36 216.02 295.286 212.396 295.571C170.069 299.02 133.085 330.69 121.539 373.157C110.337 414.278 125.709 463.645 156.558 485.723C193.68 512.287 245.037 513.356 280.849 487.172C308.01 467.301 326.932 441.325 334.757 407.793C337.859 394.476 337.859 381.781 334.24 368.603Z" fill="white"/>
</svg>
