<svg width="734" height="734" viewBox="0 0 734 734" fill="none" xmlns="http://www.w3.org/2000/svg">
<path d="M600.099 305.132L713.403 350.298C740.865 361.246 739.397 400.648 711.197 409.517L594.846 446.108C577.087 451.694 568.048 471.426 575.407 488.543L623.622 600.688C635.309 627.869 606.439 654.691 580.234 641L472.116 584.51C455.614 575.888 435.284 583.443 428.398 600.756L383.28 714.186C372.345 741.678 332.986 740.208 324.127 711.977L287.575 595.499C281.996 577.72 262.285 568.672 245.187 576.039L133.165 624.308C106.014 636.007 79.2217 607.105 92.8982 580.872L149.325 472.634C157.938 456.114 150.392 435.762 133.098 428.868L19.7927 383.701C-7.66911 372.754 -6.20079 333.351 21.9989 324.482L138.35 287.891C156.109 282.306 165.148 262.573 157.789 245.457L109.574 133.312C97.8875 106.131 126.757 79.3083 152.962 92.9999L261.08 149.489C277.582 158.111 297.912 150.557 304.799 133.244L349.916 19.8148C360.851 -7.67722 400.21 -6.20821 409.069 22.0234L445.62 138.503C451.199 156.282 470.91 165.331 488.008 157.963L600.03 109.695C627.181 97.9956 653.973 126.897 640.297 153.131L583.87 261.368C575.259 277.886 582.805 298.238 600.099 305.132Z" fill="white"/>
<path d="M479.662 480.204C542.114 417.684 542.114 316.318 479.662 253.798C417.21 191.277 315.956 191.277 253.505 253.798C191.053 316.318 191.053 417.684 253.505 480.204C315.956 542.725 417.21 542.725 479.662 480.204Z" fill="#FF18B2"/>
<path d="M409.665 356.511C417.801 356.357 424.078 339.292 423.685 318.394C423.293 297.496 416.379 280.679 408.243 280.832C400.107 280.985 393.83 298.051 394.222 318.949C394.615 339.847 401.529 356.664 409.665 356.511Z" fill="white"/>
<path d="M317.309 358.249C325.445 358.096 331.722 341.03 331.33 320.132C330.937 299.234 324.024 282.417 315.888 282.57C307.752 282.723 301.474 299.789 301.867 320.687C302.26 341.585 309.173 358.402 317.309 358.249Z" fill="white"/>
<path d="M367.808 382.233L366.875 382.236C306.834 382.994 288.502 455.637 288.324 456.372C287.933 457.982 288.919 459.604 290.528 459.996C292.134 460.387 293.758 459.401 294.151 457.791C294.318 457.102 311.585 388.938 366.949 388.24L367.807 388.237C422.474 388.237 432.241 456.676 432.333 457.368C432.553 459.008 434.049 460.158 435.699 459.949C437.339 459.733 438.494 458.229 438.279 456.587C438.184 455.844 427.885 382.233 367.808 382.233Z" fill="white"/>
</svg>
