<svg width="113" height="100" viewBox="0 0 113 100" fill="none" xmlns="http://www.w3.org/2000/svg">
<path d="M116.313 130.746V61.0473H5.67974V130.746C5.67974 131.972 6.67143 132.963 7.90221 132.963H114.095C115.318 132.963 116.313 131.973 116.313 130.746Z" fill="white" stroke="black" stroke-width="1.90621"/>
<path d="M117.266 60.0942V130.746C117.266 132.501 115.843 133.916 114.095 133.916H7.90221C6.14718 133.916 4.72664 132.501 4.72664 130.746V60.0942H117.266Z" fill="white" stroke="black" stroke-width="1.90621" stroke-linecap="round" stroke-linejoin="round"/>
<path d="M51.4301 60.7095H70.1484V133.916H51.4301V60.7095Z" fill="white" stroke="black" stroke-width="1.90621" stroke-linecap="round" stroke-linejoin="round"/>
<path d="M2.93019 58.5079V58.5518C2.95352 59.4011 3.65135 60.0867 4.51321 60.0867H117.479C118.356 60.0867 119.063 59.3773 119.063 58.5079V40.5973C119.063 39.7266 118.354 39.0161 117.479 39.0161H4.51381C3.63833 39.0161 2.93019 39.7266 2.93019 40.5973V58.5079Z" fill="white" stroke="black" stroke-width="1.90621"/>
<path d="M1.97649 58.5079C1.97649 59.9049 3.11135 61.0398 4.51321 61.0398H117.479C118.881 61.0398 120.016 59.9049 120.016 58.5079V40.5973C120.016 39.2003 118.881 38.063 117.479 38.063H4.51381C3.11195 38.063 1.97709 39.2003 1.97709 40.5973V58.5079H1.97649Z" fill="white" stroke="black" stroke-width="1.90621" stroke-linecap="round" stroke-linejoin="round"/>
<path d="M93.1418 6.06352L93.1417 6.06343C90.7596 4.09337 88.5416 3.1677 86.4952 2.97392C84.4518 2.78042 82.486 3.30776 80.5891 4.40583C76.7508 6.6277 73.3017 11.1254 70.3928 16.2914C67.5008 21.4273 65.2161 27.0889 63.6519 31.4803C62.8709 33.673 62.2718 35.5424 61.8683 36.8624C61.8023 37.0782 61.7416 37.2792 61.6862 37.4646C61.9856 37.4043 62.3252 37.3347 62.7013 37.2556C64.2982 36.92 66.5507 36.4152 69.169 35.7391C74.4142 34.3846 81.0908 32.352 86.9 29.6312C89.8041 28.271 92.4655 26.7507 94.6155 25.0749C96.7711 23.3947 98.3613 21.598 99.1993 19.7003C100.023 17.8346 100.144 15.8222 99.2805 13.6028C98.4041 11.3505 96.4914 8.83296 93.1418 6.06352Z" fill="white" stroke="black" stroke-width="1.90621"/>
<path d="M60.3396 38.6942C60.3396 38.6942 73.797 -11.1719 93.7491 5.32897C121.109 27.9495 60.3396 38.6942 60.3396 38.6942Z" fill="white" stroke="black" stroke-width="1.90621" stroke-linecap="round" stroke-linejoin="round"/>
<path d="M60.7668 38.0075L82.0352 19.1206" stroke="black" stroke-width="1.90621" stroke-linecap="round" stroke-linejoin="round"/>
<path d="M59.6885 37.466C59.633 37.2807 59.5723 37.0797 59.5063 36.8639C59.1028 35.544 58.5035 33.6745 57.7223 31.4818C56.1578 27.0904 53.8727 21.4289 50.9802 16.2929C48.0707 11.127 44.6211 6.62922 40.7822 4.40733C38.8849 3.30924 36.9188 2.78188 34.875 2.97539C32.8282 3.16918 30.61 4.09486 28.2276 6.06493L27.6202 5.33043L28.2276 6.06495C24.8783 8.83445 22.9659 11.3521 22.0898 13.6044C21.2264 15.8237 21.3476 17.8362 22.1718 19.7019C23.0101 21.5996 24.6006 23.3964 26.7566 25.0766C28.9068 26.7524 31.5685 28.2727 34.4729 29.6329C40.2826 32.3536 46.9597 34.3862 52.2052 35.7406C54.8237 36.4167 57.0764 36.9215 58.6733 37.2571C59.0494 37.3362 59.3891 37.4058 59.6885 37.466Z" fill="white" stroke="black" stroke-width="1.90621"/>
<path d="M61.0352 38.6957C61.0352 38.6957 47.5747 -11.1705 27.6202 5.33043C0.262966 27.9516 61.0352 38.6957 61.0352 38.6957Z" fill="white" stroke="black" stroke-width="1.90621" stroke-linecap="round" stroke-linejoin="round"/>
<path d="M60.6133 38.0071L39.3498 19.1201" stroke="black" stroke-width="1.90621" stroke-linecap="round" stroke-linejoin="round"/>
<path d="M51.4301 38.063H70.1484V61.0398H51.4301V38.063Z" fill="white" stroke="black" stroke-width="1.90621" stroke-linecap="round" stroke-linejoin="round"/>
<path d="M80.5174 80.4125C80.5174 76.5047 83.6827 73.3237 87.5954 73.3237C90.2515 73.3237 92.5598 74.7931 93.7724 76.9483C94.9874 74.7931 97.2957 73.3237 99.9493 73.3237C103.865 73.3237 107.035 76.5047 107.035 80.4125C107.035 82.8715 105.615 84.8242 103.87 86.3092C101.421 88.3836 93.4963 94.3767 93.4963 94.3767C93.4963 94.3767 86.0055 88.433 83.8292 86.4026C82.1079 84.8055 80.5162 82.9335 80.5162 80.4125H80.5174Z" fill="#FF18B2"/>
</svg>
