<svg width="31" height="23" viewBox="0 0 31 23" fill="none" xmlns="http://www.w3.org/2000/svg">
<path d="M27.5329 10.1971C27.7997 10.1841 28.1314 10.306 28.2953 10.4749C28.5951 10.7847 28.755 11.6101 28.3533 11.768C27.7897 11.9908 26.8973 10.9276 27.1711 10.388C27.2351 10.2621 27.372 10.2051 27.5329 10.1971ZM5.07323 11.3663C5.88564 11.3243 6.67307 11.4972 6.38028 11.9478C6.2234 12.1897 3.72822 13.7815 3.05871 13.5627C2.41018 13.3508 3.22758 12.0108 3.81315 11.6601C4.08995 11.4942 4.58659 11.3913 5.07323 11.3653V11.3663ZM14.5233 10.1002C15.06 10.0692 15.7694 10.7417 15.6855 11.2593C15.5956 11.8169 14.5593 12.2416 14.1146 11.8939C13.648 11.5291 13.8089 10.344 14.3635 10.1342C14.4144 10.1152 14.4674 10.1042 14.5233 10.1012V10.1002ZM23.9095 8.5783C24.8628 8.49336 26.0749 9.96729 25.6792 10.8387C25.2575 11.767 23.175 11.8649 22.6254 11.0055C22.1318 10.2341 22.9972 8.65824 23.9095 8.5773V8.5783ZM11.0359 9.14389C11.0719 9.14389 11.1078 9.14389 11.1438 9.14789C12.1271 9.23582 12.8835 11.0035 12.3679 11.8449C11.8123 12.7523 9.69587 12.9201 9.18025 11.9898C8.63964 11.0135 9.91271 9.16487 11.0349 9.14289L11.0359 9.14389ZM18.3785 8.15161C19.138 8.12863 20.1093 9.09592 20.0713 9.84638C20.0313 10.6148 18.8172 11.4662 18.1367 11.1075C17.2873 10.6598 17.2074 8.65025 18.0698 8.22656C18.1657 8.17959 18.2706 8.15561 18.3785 8.15261V8.15161ZM8.38682 6.19903C8.54871 6.18604 8.47376 6.51281 8.2719 7.11237C7.88319 8.26653 7.75728 10.1222 6.02354 10.1591C5.40499 10.1721 4.40472 10.0342 5.50492 9.00599C6.31633 8.24654 6.99683 7.35419 7.81624 6.60374C8.10702 6.33694 8.28989 6.20703 8.38682 6.19903ZM20.9247 4.45131C21.5362 4.40634 22.3756 5.26871 22.3067 5.88227C22.2587 6.30996 21.5492 6.64671 21.1575 6.46784C20.552 6.19104 20.1153 4.88299 20.6789 4.52925C20.7538 4.48229 20.8367 4.4573 20.9237 4.45131H20.9247ZM13.569 4.35638C14.3535 4.29442 15.4487 5.10383 15.3497 5.84529C15.2248 6.78561 13.3842 7.4771 12.6827 6.83857C12.0611 6.27298 12.5458 4.68814 13.3362 4.40534C13.4092 4.37936 13.4871 4.36337 13.568 4.35738L13.569 4.35638ZM17.9818 2.6796C18.2297 2.66461 18.4665 2.71357 18.6294 2.84548C19.2709 3.3661 19.2309 5.07286 18.4415 5.31668C17.6421 5.5635 16.6198 4.15452 16.8716 3.35711C16.9926 2.97538 17.5072 2.70858 17.9808 2.6796H17.9818ZM11.0509 2.96039C11.4266 2.92842 11.9043 3.11328 11.9572 3.43905C12.0911 4.24946 10.7031 5.47456 10.0406 4.98991C9.47103 4.57322 10.1695 3.30814 10.8131 3.01835C10.883 2.98738 10.9639 2.96839 11.0509 2.96139V2.96039ZM14.988 0.0305318C12.7446 0.169431 11.0938 1.09376 9.60993 2.80851L2.03745 11.2494C1.0032 12.2866 0.112855 14.462 1.25602 15.9789C4.28781 13.084 7.93215 13.4667 9.70286 13.4617C11.7494 13.5667 13.0414 13.9504 15.8424 13.7765C18.6433 13.6026 19.8784 13.062 21.896 12.7043C23.6527 12.4904 27.2221 11.6591 30.5886 14.1572C31.5349 12.5114 30.3828 10.4629 29.2276 9.56059L20.6689 2.12201C18.9841 0.604113 17.2314 -0.108369 14.988 0.031529V0.0305318Z" fill="white"/>
<path d="M14.2322 15.0367L14.3631 16.6066C14.5299 19.2956 13.9204 19.4075 13.2709 20.2639C11.9948 21.9457 13.3288 23.2817 14.516 22.6022C15.1235 22.3174 15.6301 22.0736 16.3556 22.0316C17.0801 21.9836 17.6137 22.1625 18.2512 22.3704C19.5133 22.898 20.6715 21.4071 19.1975 19.8962C18.4471 19.1267 17.8285 19.0908 17.6607 16.4027L17.5967 14.8289L15.9259 15.1127L14.2332 15.0377L14.2322 15.0367Z" fill="white"/>
<path d="M24.8547 13.8715C24.0673 13.9144 23.2929 14.0373 22.5194 14.1542C23.6396 14.8098 24.9976 15.2315 26.5935 15.4773C27.3449 15.5932 27.0681 16.1448 26.4905 16.1548C23.8375 16.1988 19.4786 13.4428 20.8776 14.8827C21.4442 15.4653 21.9928 15.6382 22.6643 16.1248C23.3858 16.6474 22.9151 16.9962 22.3266 16.8053C21.2024 16.4426 19.4876 14.8447 19.1519 15.2295C18.8311 15.5972 19.5586 16.2008 19.8434 16.4336C20.307 16.8133 19.7335 17.6857 19.2428 16.8403C19.1179 17.6087 19.4796 18.0604 20.0112 18.4032C23.076 18.1733 26.1238 17.8406 28.9487 16.1038C29.948 15.7941 29.6872 15.1305 28.9647 14.7388C27.5198 13.9544 26.1698 13.8015 24.8567 13.8725L24.8547 13.8715ZM6.9108 14.9866C5.59876 15.0786 4.27872 15.3973 2.9417 16.3546C2.27318 16.8333 2.09731 17.5238 3.12656 17.7077C6.14436 19.0827 9.21012 19.0347 12.2799 18.8838C12.7645 18.4791 13.0673 17.9855 12.8485 17.238C12.4657 18.1373 11.7882 17.3439 12.2019 16.9092C12.4548 16.6434 13.1023 15.9539 12.7386 15.6292C12.3578 15.2884 10.8539 17.0861 9.78371 17.5857C9.22311 17.8476 8.71249 17.5598 9.36401 16.9522C9.96957 16.3866 10.4932 16.1478 10.9828 15.4993C12.193 13.8984 8.20886 17.172 5.57078 17.4568C4.9962 17.5188 4.65345 17.0062 5.38392 16.7973C6.93678 16.3546 8.23283 15.7681 9.26308 14.9796C8.48065 14.9597 7.69723 14.9337 6.9108 14.9886V14.9866Z" fill="white"/>
</svg>
