<svg width="11" height="12" viewBox="0 0 11 12" fill="none" xmlns="http://www.w3.org/2000/svg">
<path d="M5.41227 11.3744C4.33555 11.3744 3.39055 11.1395 2.57727 10.6699C1.764 10.2003 1.12827 9.53591 0.670091 8.67682C0.223364 7.81773 0 6.82691 0 5.70436C0 4.54745 0.223364 3.53945 0.670091 2.68036C1.11682 1.82127 1.74682 1.16264 2.56009 0.704455C3.37336 0.234818 4.32409 0 5.41227 0C6.489 0 7.434 0.229091 8.24727 0.687272C9.06055 1.14545 9.68482 1.80409 10.1201 2.66318C10.5668 3.52227 10.7902 4.536 10.7902 5.70436C10.7902 6.83836 10.5668 7.83491 10.1201 8.694C9.68482 9.54164 9.06055 10.2003 8.24727 10.6699C7.434 11.1395 6.489 11.3744 5.41227 11.3744ZM5.41227 10.4637C6.78682 10.4637 7.85782 10.0456 8.62527 9.20945C9.39273 8.36182 9.77645 7.19345 9.77645 5.70436C9.77645 4.20382 9.39273 3.02973 8.62527 2.18209C7.85782 1.323 6.78682 0.893453 5.41227 0.893453C4.02627 0.893453 2.94382 1.323 2.16491 2.18209C1.39745 3.02973 1.01373 4.20382 1.01373 5.70436C1.01373 7.19345 1.40318 8.36182 2.18209 9.20945C2.961 10.0456 4.03773 10.4637 5.41227 10.4637ZM3.05836 9.03764C2.92091 9.03764 2.85218 8.96891 2.85218 8.83145V2.50854C2.85218 2.45127 2.86936 2.40545 2.90373 2.37109C2.94955 2.32527 3.00109 2.30236 3.05836 2.30236H5.36073C6.21982 2.30236 6.88991 2.47418 7.371 2.81782C7.85209 3.16145 8.09264 3.65973 8.09264 4.31263C8.09264 4.81664 7.94945 5.229 7.66309 5.54973C7.37673 5.87045 6.97582 6.09382 6.46036 6.21982L8.10982 8.79709C8.13273 8.83145 8.14418 8.87154 8.14418 8.91736C8.14418 8.99754 8.08691 9.03764 7.97236 9.03764H7.01018C6.88418 9.03764 6.79827 8.99182 6.75245 8.90018L5.13736 6.35727H4.05491L4.08927 8.83145C4.08927 8.96891 4.02055 9.03764 3.88309 9.03764H3.05836ZM4.08927 3.19582L4.05491 5.44664H5.42945C5.88764 5.44664 6.24273 5.36073 6.49473 5.18891C6.74673 5.00564 6.87273 4.725 6.87273 4.347C6.87273 3.57955 6.38591 3.19582 5.41227 3.19582H4.08927Z" fill="white"/>
</svg>
