<svg width="821" height="822" viewBox="0 0 821 822" fill="none" xmlns="http://www.w3.org/2000/svg">
<path d="M1.38843 379.942C21.9566 133.994 239.923 -16.1702 443.246 1.38926C682.462 22.0501 837.949 230.338 818.442 442.051C801.216 689.305 571.481 836.78 379.409 819.742C149.323 799.333 -16.9646 599.356 1.38293 379.942H1.38843ZM363.722 196.772C361.666 188.275 358.918 179.619 354.686 172.039C338.976 143.907 309.103 140.164 285.819 162.537C267.752 179.899 258.122 201.619 252.411 225.392C250.278 234.257 249.053 243.341 247.409 252.321C245.975 276.001 248.497 298.742 261.293 319.332C270.489 334.125 284.159 342.77 301.281 338.78C311.669 336.359 321.789 329.404 330.116 322.263C348.436 306.564 356.697 284.888 362.084 261.927C367.157 240.278 368.982 218.542 363.716 196.772H363.722ZM605.961 216.604C603.389 208.332 599.371 200.016 594.138 193.144C578.962 173.224 560.702 170.864 539.684 184.427C518.109 198.348 507.127 219.486 499.762 242.836C496.112 254.402 494.21 266.516 491.512 278.378C490.907 298.918 492.605 318.799 500.317 337.885C512.783 368.722 541.816 376.901 568.535 356.882C585.085 344.483 593.94 326.742 600.915 308.002C612.051 278.103 615.58 247.551 605.95 216.604H605.961ZM722.84 477.257C725.215 467.174 726.319 456.778 728.98 446.788C729.969 443.066 733.02 438.779 736.34 437.001C745.442 432.137 755.797 429.459 764.537 424.101C777.619 416.082 777.295 398.182 764.438 389.767C761.453 387.813 756.803 386.595 753.428 387.341C739.764 390.36 726.16 393.851 712.798 398.001C701.739 401.437 691.092 406.18 680.165 410.082C669.084 414.046 662.642 425.572 665.439 437.017C667.731 446.376 679.098 453.04 690.13 451.492C699.568 450.163 700.227 450.817 697.523 460.395C683.155 511.35 653.66 552.644 614.811 587.615C540.48 654.521 453.745 677.564 355.615 659.796C224.554 636.067 122.582 518.563 117.382 385.003C117.086 377.384 116.998 369.754 116.948 362.13C116.91 356.674 118.91 354.961 124.352 357.673C138.022 364.49 148.46 362.531 154.968 352.398C161.866 341.65 159.101 329.498 147.168 320.391C129.689 307.058 112.034 293.961 94.3683 280.881C85.7607 274.508 72.2391 275.397 65.8576 282.489C58.8879 290.229 58.2394 304.264 65.5993 311.834C71.9423 318.355 79.5111 323.685 86.5027 329.58C91.4167 333.719 93.6428 337.967 92.1642 345.328C63.571 487.818 138.627 638.059 268.181 698C304.013 714.577 341.846 723.848 381.163 727.18C546.675 742.253 687.47 627.619 722.846 477.252L722.84 477.257Z" fill="black"/>
</svg>
