<svg width="205" height="307" viewBox="0 0 205 307" fill="none" xmlns="http://www.w3.org/2000/svg">
  <path d="M306.48 142.06C298.781 50.1004 217.185 -6.04605 141.071 0.519446C51.5205 8.24453 -6.68597 86.1234 0.616583 165.283C7.06522 257.732 93.0663 312.872 164.968 306.502C251.101 298.871 313.351 224.099 306.482 142.06H306.48ZM170.841 73.5732C171.61 70.3962 172.639 67.1596 174.224 64.3253C180.104 53.8069 191.288 52.4072 200.004 60.7726C206.767 67.2643 210.372 75.3854 212.51 84.2742C213.308 87.5888 213.767 90.9855 214.383 94.3431C214.92 103.197 213.975 111.7 209.185 119.398C205.743 124.929 200.625 128.162 194.216 126.67C190.327 125.765 186.539 123.164 183.421 120.494C176.563 114.625 173.471 106.52 171.454 97.9347C169.555 89.8402 168.872 81.7129 170.843 73.5732H170.841ZM80.1587 80.9884C81.1217 77.8955 82.6258 74.7862 84.5847 72.2166C90.2658 64.7686 97.1013 63.8861 104.97 68.9575C113.046 74.1622 117.157 82.0659 119.914 90.7966C121.281 95.1209 121.993 99.6505 123.003 104.086C123.229 111.766 122.593 119.199 119.706 126.335C115.04 137.865 104.171 140.923 94.1691 133.439C87.9736 128.802 84.6587 122.169 82.0476 115.162C77.8788 103.983 76.5578 92.5596 80.1628 80.9884H80.1587ZM36.4051 178.447C35.5162 174.677 35.1026 170.789 34.1067 167.054C33.7363 165.663 32.5943 164.06 31.3515 163.395C27.9441 161.576 24.0675 160.575 20.7958 158.572C15.8987 155.573 16.0201 148.88 20.8329 145.734C21.9502 145.004 23.6909 144.548 24.9543 144.827C30.0696 145.956 35.1623 147.261 40.1644 148.813C44.3044 150.098 48.29 151.871 52.3806 153.33C56.5288 154.812 58.9403 159.122 57.893 163.401C57.035 166.9 52.7798 169.392 48.6501 168.813C45.1171 168.316 44.8702 168.561 45.8826 172.142C51.2612 191.194 62.3025 206.634 76.8459 219.71C104.671 244.726 137.141 253.342 173.876 246.698C222.938 237.826 261.111 193.891 263.058 143.953C263.169 141.104 263.202 138.251 263.221 135.401C263.235 133.361 262.486 132.72 260.449 133.734C255.332 136.283 251.424 135.55 248.988 131.762C246.406 127.743 247.441 123.199 251.908 119.794C258.451 114.809 265.06 109.912 271.673 105.022C274.896 102.639 279.957 102.971 282.346 105.623C284.955 108.517 285.198 113.765 282.443 116.595C280.069 119.033 277.235 121.026 274.618 123.23C272.778 124.778 271.945 126.366 272.498 129.118C283.202 182.396 255.105 238.571 206.607 260.982C193.193 267.181 179.03 270.647 164.312 271.893C102.352 277.529 49.646 234.667 36.403 178.445L36.4051 178.447Z" fill="white" fill-opacity="0.1" />
</svg>