<svg width="55" height="55" viewBox="0 0 55 55" fill="none" xmlns="http://www.w3.org/2000/svg">
<rect width="55" height="55" rx="27.5" fill="#FF18B2"/>
<g clip-path="url(#clip0_598_4753)">
<path d="M26.204 33.2052L24.4267 34.9825C23.2091 36.2001 21.2351 36.2001 20.0175 34.9825C18.7999 33.765 18.7999 31.7909 20.0175 30.5733L24.8722 25.7186C26.0898 24.501 28.0638 24.501 29.2814 25.7186C29.7295 26.1667 30.0124 26.7174 30.1307 27.295C30.1325 27.2932 30.1345 27.2916 30.1362 27.2897L32.5209 24.905C32.2461 24.4088 31.8991 23.9421 31.4785 23.5215V23.5215C29.0514 21.0944 25.1021 21.0944 22.675 23.5215L17.8203 28.3762C15.3932 30.8033 15.3932 34.7525 17.8203 37.1796C20.2474 39.6067 24.1966 39.6067 26.6238 37.1796L30.2096 33.5938C29.7888 33.6646 29.3588 33.7011 28.9232 33.7011C27.9786 33.7011 27.0605 33.5308 26.204 33.2052Z" fill="white"/>
<path d="M38.1791 16.8203C35.7521 14.3932 31.8028 14.3932 29.3757 16.8203L25.7898 20.4062C26.2107 20.3353 26.6406 20.2989 27.0763 20.2989C28.021 20.2989 28.939 20.4693 29.7955 20.7948L31.5728 19.0175C32.7904 17.7999 34.7644 17.7999 35.982 19.0175C37.1996 20.235 37.1996 22.2091 35.982 23.4266L31.1273 28.2814C29.9097 29.4989 27.9357 29.4989 26.7181 28.2813C26.27 27.8332 25.9871 27.2826 25.8688 26.705C25.867 26.7068 25.8651 26.7085 25.8633 26.7102L23.4785 29.0949C23.7533 29.5912 24.1003 30.0578 24.521 30.4785C26.948 32.9055 30.8973 32.9055 33.3244 30.4785L38.1791 25.6237C40.6062 23.1966 40.6062 19.2474 38.1791 16.8203Z" fill="white"/>
</g>
<defs>
<clipPath id="clip0_598_4753">
<rect width="24" height="24" fill="white" transform="translate(16 15)"/>
</clipPath>
</defs>
</svg>
