<svg width="32" height="33" viewBox="0 0 32 33" fill="none" xmlns="http://www.w3.org/2000/svg">
<g clip-path="url(#clip0_470_7752)">
<path d="M4 16.3068C4 12.993 5.34313 9.99301 7.51438 7.82176H7.515L9.49687 9.80363L9.98812 2.52051L2.705 3.01176L4.68625 4.99301C1.79063 7.88863 0 11.8886 0 16.3068C0 25.143 7.16375 32.3068 16 32.3068V28.3068C9.3725 28.3068 4 22.9343 4 16.3068Z" fill="#FF18B2"/>
<path d="M16.9371 13.5787V8.77686H15.3346L10.3652 18.0387L10.9571 19.035H15.0621V23.8369H16.6646L21.634 14.575L21.0421 13.5787H16.9371Z" fill="#FF18B2"/>
<path d="M32 16.3066C32 7.47039 24.8363 0.306641 16 0.306641V4.30664C22.6275 4.30664 28 9.67914 28 16.3066C28 19.6204 26.6569 22.6204 24.485 24.7916L22.5037 22.8104L22.0125 30.0935L29.2962 29.6029L27.3137 27.6204C30.2094 24.7248 32 20.7248 32 16.3066Z" fill="#FF18B2"/>
</g>
<defs>
<clipPath id="clip0_470_7752">
<rect width="32" height="32" fill="white" transform="translate(0 0.306641)"/>
</clipPath>
</defs>
</svg>
