<svg width="734" height="734" viewBox="0 0 734 734" fill="none" xmlns="http://www.w3.org/2000/svg">
<path d="M600.099 305.132L713.403 350.298C740.865 361.246 739.397 400.648 711.197 409.517L594.846 446.108C577.087 451.694 568.048 471.426 575.407 488.543L623.622 600.688C635.309 627.869 606.439 654.691 580.234 641L472.116 584.51C455.614 575.888 435.284 583.443 428.398 600.756L383.28 714.186C372.345 741.678 332.986 740.208 324.127 711.977L287.575 595.499C281.996 577.72 262.285 568.672 245.187 576.039L133.165 624.308C106.014 636.007 79.2217 607.105 92.8982 580.872L149.325 472.634C157.938 456.114 150.392 435.762 133.098 428.868L19.7927 383.701C-7.66911 372.754 -6.20079 333.351 21.9989 324.482L138.35 287.891C156.109 282.306 165.148 262.573 157.789 245.457L109.574 133.312C97.8875 106.131 126.757 79.3083 152.962 92.9999L261.08 149.489C277.582 158.111 297.912 150.557 304.799 133.244L349.916 19.8148C360.851 -7.67722 400.21 -6.20821 409.069 22.0234L445.62 138.503C451.199 156.282 470.91 165.331 488.008 157.963L600.03 109.695C627.181 97.9956 653.973 126.897 640.297 153.131L583.87 261.368C575.259 277.886 582.805 298.238 600.099 305.132Z" fill="white"/>
<path d="M479.666 480.204C542.118 417.684 542.118 316.318 479.666 253.798C417.214 191.277 315.96 191.277 253.508 253.798C191.057 316.318 191.057 417.684 253.508 480.204C315.96 542.725 417.214 542.725 479.666 480.204Z" fill="#FF18B2"/>
<path d="M409.669 356.511C417.805 356.357 424.082 339.292 423.689 318.394C423.297 297.496 416.383 280.679 408.247 280.832C400.111 280.985 393.834 298.051 394.226 318.949C394.619 339.847 401.533 356.664 409.669 356.511Z" fill="white"/>
<path d="M317.317 358.249C325.453 358.096 331.73 341.03 331.338 320.132C330.945 299.234 324.032 282.417 315.896 282.57C307.76 282.723 301.482 299.789 301.875 320.687C302.267 341.585 309.181 358.402 317.317 358.249Z" fill="white"/>
<path d="M369.818 495L368.519 494.995C284.899 493.944 259.367 393.165 259.119 392.147C258.575 389.913 259.949 387.662 262.188 387.118C264.426 386.577 266.687 387.944 267.235 390.178C267.468 391.134 291.515 485.697 368.622 486.666L369.817 486.67C445.952 486.67 459.555 391.724 459.683 390.765C459.989 388.489 462.073 386.894 464.37 387.183C466.654 387.484 468.263 389.57 467.964 391.848C467.831 392.879 453.488 495 369.818 495Z" fill="white"/>
</svg>
