<svg width="38" height="28" viewBox="0 0 38 28" fill="none" xmlns="http://www.w3.org/2000/svg">
  <path d="M33.7194 13.5193C34.0455 13.5259 34.4393 13.7032 34.6247 13.9237C34.9638 14.3282 35.0891 15.3519 34.5865 15.5112C33.8813 15.7363 32.8838 14.3595 33.2627 13.7223C33.3512 13.5736 33.5228 13.5155 33.7194 13.5193ZM6.26419 13.051C7.25727 13.0683 8.20184 13.3465 7.80729 13.8733C7.59584 14.156 4.42264 15.8932 3.62556 15.5687C2.85345 15.2546 3.96186 13.6837 4.70463 13.304C5.05574 13.1244 5.66933 13.0404 6.26427 13.0498L6.26419 13.051ZM17.8814 12.3006C18.5376 12.308 19.3452 13.1911 19.1994 13.8175C19.0429 14.4923 17.745 14.9245 17.2326 14.4613C16.6949 13.9754 16.9906 12.5386 17.6838 12.3286C17.7475 12.3097 17.8129 12.3007 17.8813 12.3018L17.8814 12.3006ZM29.4422 11.2317C30.6105 11.2083 31.9629 13.1147 31.4076 14.1477C30.8158 15.2482 28.271 15.1919 27.6739 14.0937C27.1376 13.1078 28.3242 11.2524 29.4423 11.2304L29.4422 11.2317ZM13.714 10.8353C13.7578 10.8383 13.8016 10.8414 13.8451 10.8493C15.0354 11.0401 15.808 13.2675 15.1092 14.2536C14.3561 15.3171 11.764 15.3436 11.2142 14.1614C10.6379 12.9208 12.3441 10.766 13.7129 10.834L13.714 10.8353ZM22.7412 10.2418C23.6681 10.2778 24.7698 11.5438 24.6604 12.4591C24.547 13.3962 22.9966 14.3355 22.1979 13.8389C21.201 13.2192 21.2727 10.753 22.3588 10.3074C22.4796 10.258 22.6094 10.2375 22.7411 10.243L22.7412 10.2418ZM10.7351 7.00714C10.9334 7.00493 10.8146 7.39851 10.5183 8.11523C9.9477 9.49491 9.63817 11.7553 7.52329 11.654C6.76878 11.6176 5.56201 11.3642 6.98864 10.1988C8.04088 9.33795 8.94486 8.30337 10.0061 7.45421C10.3827 7.15226 10.6164 7.00873 10.7351 7.00714ZM26.1539 5.92836C26.9026 5.92504 27.8524 7.05145 27.7168 7.79653C27.6224 8.31591 26.7299 8.66806 26.2678 8.41602C25.5535 8.02605 25.1317 6.38824 25.8479 6.00296C25.9432 5.95182 26.0463 5.92826 26.1527 5.92827L26.1539 5.92836ZM17.2024 5.19018C18.1631 5.18068 19.429 6.26391 19.2461 7.16299C19.0148 8.30326 16.7146 8.99391 15.9139 8.15311C15.2044 7.40835 15.9281 5.50968 16.9147 5.23042C17.0057 5.20479 17.102 5.19181 17.2011 5.19132L17.2024 5.19018ZM22.7185 3.51116C23.0216 3.51377 23.3059 3.59373 23.4932 3.76893C24.2308 4.46035 24.0385 6.54583 23.0564 6.77748C22.0619 7.01196 20.9354 5.20111 21.3092 4.24646C21.4886 3.78951 22.1379 3.50649 22.7173 3.51108L22.7185 3.51116ZM14.2526 3.26874C14.713 3.26137 15.2792 3.52802 15.3163 3.93119C15.4112 4.93435 13.6175 6.31635 12.8513 5.66718C12.1926 5.10903 13.1498 3.61981 13.9581 3.31956C14.0459 3.28756 14.1461 3.27117 14.2526 3.26996L14.2526 3.26874ZM19.2948 0.0158846C16.5506 -0.00382048 14.4621 0.987844 12.5103 2.961L2.5763 12.6512C1.22925 13.8332 -0.0383026 16.4203 1.22647 18.3735C5.16295 15.0869 9.56971 15.8634 11.7269 16.0071C14.2108 16.3085 15.7523 16.8874 19.1787 16.9115C22.605 16.9355 24.1549 16.3783 26.6424 16.1111C28.8002 15.9979 33.2178 15.2822 37.1082 18.6244C38.3993 16.6901 37.1684 14.0856 35.8373 12.8836L26.0383 3.05596C24.114 1.05579 22.039 0.0355871 19.2947 0.0171051L19.2948 0.0158846Z" fill="#FF18B2" />
  <path d="M17.1097 18.318L17.137 20.2504C17.114 23.5555 16.3621 23.641 15.4989 24.6341C13.803 26.5845 15.3155 28.3325 16.8187 27.6012C17.5827 27.304 18.2203 27.0485 19.1075 27.0585C19.9939 27.061 20.6289 27.325 21.3879 27.6333C22.8808 28.3858 24.4169 26.659 22.7488 24.6853C21.8994 23.6801 21.149 23.5838 21.1708 20.2798L21.2254 18.3482L19.1664 18.5542L17.1108 18.3193L17.1097 18.318Z" fill="#FF18B2" />
  <path d="M30.1496 17.7898C29.1868 17.7758 28.2332 17.8607 27.2813 17.9384C28.5906 18.8354 30.2092 19.4664 32.1323 19.9022C33.0378 20.1076 32.6543 20.7593 31.9499 20.7226C28.7147 20.5521 23.6374 16.8105 25.2202 18.6912C25.8613 19.4521 26.515 19.71 27.2919 20.3624C28.1267 21.063 27.5241 21.4501 26.8233 21.1667C25.4845 20.6277 23.5303 18.5271 23.089 18.9696C22.6673 19.3925 23.5026 20.1927 23.8299 20.5018C24.3627 21.0057 23.5907 22.0249 23.0642 20.9487C22.8474 21.8786 23.25 22.462 23.8686 22.9265C27.621 22.9043 31.3614 22.7548 34.9484 20.8681C36.1916 20.5735 35.9298 19.7394 35.0828 19.1989C33.3888 18.1167 31.7572 17.8154 30.1519 17.7912L30.1496 17.7898ZM8.19925 17.6373C6.59338 17.6389 4.9587 17.9174 3.24958 18.9759C2.39501 19.5052 2.12268 20.3354 3.36088 20.6475C6.92098 22.5855 10.6592 22.786 14.4111 22.8609C15.0354 22.4066 15.4458 21.8281 15.2421 20.8948C14.7003 21.9631 13.9418 20.9348 14.4823 20.4377C14.8126 20.1338 15.6593 19.3447 15.2436 18.9165C14.8086 18.4673 12.8255 20.5402 11.4798 21.0612C10.775 21.3342 10.1772 20.9388 11.0219 20.2504C11.8071 19.6094 12.465 19.3613 13.116 18.609C14.7247 16.7521 9.59642 20.4217 6.35916 20.5472C5.65408 20.5744 5.27973 19.9181 6.18705 19.7242C8.11577 19.3138 9.74378 18.7055 11.065 17.8277C10.1137 17.737 9.16161 17.639 8.19908 17.6398L8.19925 17.6373Z" fill="#FF18B2" />
</svg>